<?xml version="1.0" encoding="UTF-8" standalone="no"?>
<svg
   version="1.1"
   id="Ebene_1"
   x="0px"
   y="0px"
   viewBox="0 0 400 280"
   style="enable-background:new 0 0 400 280;"
   xml:space="preserve"
   sodipodi:docname="froeling_heizkoerper.svg"
   inkscape:version="1.3 (0e150ed6c4, 2023-07-21)"
   xmlns:inkscape="http://www.inkscape.org/namespaces/inkscape"
   xmlns:sodipodi="http://sodipodi.sourceforge.net/DTD/sodipodi-0.dtd"
   xmlns="http://www.w3.org/2000/svg"
   xmlns:svg="http://www.w3.org/2000/svg"><sodipodi:namedview
   id="namedview32"
   pagecolor="#ffffff"
   bordercolor="#000000"
   borderopacity="0.25"
   inkscape:showpageshadow="2"
   inkscape:pageopacity="0.0"
   inkscape:pagecheckerboard="0"
   inkscape:deskcolor="#d1d1d1"
   inkscape:zoom="1.1351589"
   inkscape:cx="218.91208"
   inkscape:cy="222.87629"
   inkscape:window-width="958"
   inkscape:window-height="1128"
   inkscape:window-x="946"
   inkscape:window-y="0"
   inkscape:window-maximized="0"
   inkscape:current-layer="Ebene_1" />&#10;	<defs
   id="defs1">&#10;        <style
   id="style1">&#10;            @import url(&quot;https://fonts.googleapis.com/css?family=Roboto:400,400i,700,700i&quot;);			&#10;        </style>&#10;	</defs> &#10;<style
   type="text/css"
   id="style2">&#10;	.stPumpActive{fill:#87AD27;}&#10;	.stPumpInActive{fill:#BBBBBB;}&#10;	.stHeatingOn{fill-rule:evenodd;clip-rule:evenodd;fill:#FF3232;}&#10;	.stHeatingOff{fill-rule:evenodd;clip-rule:evenodd;fill:#BBBBBB;}&#10;	.stAvailable{opacity:1}&#10;	.stNotAvailable{opacity:0}&#10;	.stOption{opacity:0.25}&#10;	.st0{fill:none;stroke:#C8C8C8;stroke-width:10;stroke-miterlimit:10;}&#10;	.st1{fill:#323232;}&#10;	.st2{fill:#C86464;}&#10;	.st3{fill:#6E8CA0;}&#10;	.st4{fill-rule:evenodd;clip-rule:evenodd;fill:#646464;}&#10;	.st7{fill:#FFFFFF;stroke:#CCCCCC;stroke-miterlimit:10;}&#10;	.st8{fill:#CCCCCC;}&#10;	.st9{fill:#646464;}	.st10{font-family:normal;font-variant:normal;font-weight:normal;font-stretch:normal;font-family:Roboto,Arial,Helvetica,sans-serif;font-specification:'Roboto,Normal';font-variant-ligatures:normal;font-variant-caps:normal;font-variant-numeric:normal;font-feature-settings:normal;text-align:center;writing-mode:lr-tb;text-anchor:middle;}&#10;	.st11{font-size:14px;}&#10;</style>&#10;<polyline
   id="room"
   class="st0"
   points="149.9,122.6 265.6,36.5 381.3,122.6 381.3,247.9 " />&#10;<path
   id="flow-temp-sensor"
   class="st1"
   d="M143.1,205.5c0-0.7-0.5-1.3-1-1.3h-13c-0.5,0-1,0.6-1,1.3v3.8h15V205.5z" />&#10;<path
   id="supply-line-02"
   class="st2"
   d="M232.9,209.3H94.7v-2.1c0-0.2-0.2-0.4-0.4-0.4h-1.1c-0.2,0-0.4,0.2-0.4,0.4V218  c0,0.2,0.2,0.4,0.4,0.4h1.1c0.2,0,0.4-0.2,0.4-0.4v-2.3h138.2L232.9,209.3z M159.6,214.6v-4.4l4.8,2.2L159.6,214.6z" />&#10;<path
   id="supply-line-01"
   class="st2"
   d="M56.3,206.8h-1.1c-0.2,0-0.4,0.2-0.4,0.4v2.3H13.6l0,6.4h41.2v2.1c0,0.2,0.2,0.4,0.4,0.4  h1.1c0.2,0,0.4-0.2,0.4-0.4v-10.8C56.7,207,56.5,206.8,56.3,206.8z M31.3,214.6v-4.4l4.8,2.2L31.3,214.6z" />&#10;<path
   id="return-line"
   class="st3"
   d="M232.9,236.3H13.6v6.4h219.3L232.9,236.3z M36.5,241.7l-4.8-2.2l4.8-2.2V241.7z M164.8,241.7  l-4.8-2.2l4.8-2.2V241.7z" />&#10;<g
   id="radiator"
   class="st4">&#10;	<polygon
   points="230.5,236.3 240.7,236.3 240.1,242.7 230.5,242.7"
   id="polygon2" />&#10;	<polygon
   points="230.5,209.3 243.1,209.3 242.4,215.7 230.5,215.7"
   id="polygon3" />&#10;	<path
   d="M288.4,209.1l-3.4,35.2c-0.5,5.3-8.8,4.6-8.3-0.7l3.4-35.2C280.6,203,288.9,203.8,288.4,209.1z"
   id="path3" />&#10;	<path
   d="M276.6,209.1l-3.4,35.2c-0.5,5.3-8.8,4.6-8.3-0.7l3.4-35.2C268.8,203,277.1,203.8,276.6,209.1z"
   id="path4" />&#10;	<path
   d="M264.7,209.1l-3.4,35.2c-0.5,5.3-8.8,4.6-8.3-0.7l3.4-35.2C256.9,203,265.3,203.8,264.7,209.1z"
   id="path5" />&#10;	<path
   d="M252.9,209.1l-3.4,35.2c-0.5,5.3-8.8,4.6-8.3-0.7l3.4-35.2C245.1,203,253.4,203.8,252.9,209.1z"
   id="path6" />&#10;</g>&#10;<g
   id="binary_sensor.froeling_hk1_pumpe_an_aus"
   class="stPumpActive"
   inkscape:label="binary_sensor.froeling_hk1_pumpe_an_aus"><title
   id="title6">Heizkreispumpe</title>&#10;	<path
   d="M71.1,212.4c0-1.9,1.5-3.4,3.4-3.4c1.9,0,3.4,1.5,3.4,3.4c0,1.9-1.5,3.4-3.4,3.4   C72.7,215.8,71.1,214.3,71.1,212.4z"
   id="path7" />&#10;	<path
   d="M90.2,218v-2.3h-5.3c0.3-1,0.5-2.1,0.5-3.2c0-1.1-0.2-2.1-0.4-3.1h5.3v-2.1c0-0.2,0.2-0.4,0.4-0.4h1.1   c0.2,0,0.4,0.2,0.4,0.4V218c0,0.2-0.2,0.4-0.4,0.4h-1.1C90.4,218.4,90.2,218.2,90.2,218z"
   id="path8" />&#10;	<path
   d="M83.8,218.2c-0.1,0.8-0.3,1.5-0.5,2.3c-0.1,0.5-0.3,0.8-1,1c-0.8,0.2-1.6,0.4-2.4,0.5   C81.5,221.1,82.8,219.8,83.8,218.2z"
   id="path9" />&#10;	<path
   d="M69.1,222c-0.8-0.1-1.6-0.3-2.4-0.5c-0.6-0.2-0.8-0.4-1-1c-0.2-0.8-0.4-1.5-0.5-2.3   C66.2,219.7,67.5,221,69.1,222z"
   id="path10" />&#10;	<path
   d="M59.3,207.2v2.1h4.8c-0.3,1-0.4,2-0.4,3.1c0,1.1,0.2,2.2,0.5,3.2h-4.9v2.3c0,0.2-0.2,0.4-0.4,0.4h-1.1   c-0.2,0-0.4-0.2-0.4-0.4v-10.8c0-0.2,0.2-0.4,0.4-0.4h1.1C59.1,206.8,59.3,207,59.3,207.2z"
   id="path11" />&#10;	<path
   d="M74.5,201.4c-3.8,0-7.2,2-9.1,5c0.1-0.5,0.2-1,0.4-1.6c0-0.5,0.4-0.8,1-1v-4.9c0-0.2,0.2-0.4,0.4-0.4l14.9,0   c0,0,0.2,0,0.3,0.1c0.1,0.1,0.1,0.2,0.1,0.2l0,5c0.5,0.2,0.7,0.5,0.8,1c0.1,0.5,0.2,1,0.3,1.5C81.7,203.4,78.3,201.4,74.5,201.4z"
   id="path12" />&#10;	<path
   d="M74.5,222.4c5.4,0,9.8-4.5,9.8-10c0-5.5-4.4-10-9.8-10c-5.4,0-9.8,4.5-9.8,10   C64.7,217.9,69.1,222.4,74.5,222.4z M74.5,219.8c-4.1,0-7.4-3.3-7.4-7.4c0-4.1,3.3-7.4,7.4-7.4c4.1,0,7.4,3.3,7.4,7.4   C81.9,216.5,78.6,219.8,74.5,219.8z"
   id="path13" />&#10;</g>&#10;<g
   id="obj_heating"
   class="stHeatingOn">&#10;	<path
   d="M257.6,182.2c0.2,0.3,0.5,0.6,0.6,0.7c0.7,1,1.2,1.9,0.8,3c-0.3,1.1-1.3,2.4-1.7,2.9c-0.6,0.7-0.5,1.8,0.2,2.4   c0.3,0.3,0.7,0.4,1.1,0.4c0.5,0,1-0.2,1.3-0.6c0.2-0.2,1.7-2.1,2.3-4c0.8-2.6-0.5-4.7-1.2-5.8c-0.2-0.4-0.6-0.7-0.9-1.2   c-0.9-1-1.9-2.1-2.3-3.8c-0.4-1.8,1.4-3.3,1.5-3.3c0.7-0.6,0.8-1.6,0.2-2.4c-0.6-0.7-1.6-0.8-2.4-0.3c-0.1,0.1-3.4,2.8-2.6,6.6   C255,179.4,256.6,181.1,257.6,182.2z"
   id="path14" />&#10;	<path
   d="M265.6,182.2c0.2,0.3,0.5,0.6,0.6,0.7c0.7,1,1.2,1.9,0.8,3c-0.3,1.1-1.3,2.4-1.7,2.9c-0.6,0.7-0.5,1.8,0.2,2.4   c0.3,0.3,0.7,0.4,1.1,0.4c0.5,0,1-0.2,1.3-0.6c0.2-0.2,1.7-2.1,2.3-4c0.8-2.6-0.5-4.7-1.2-5.8c-0.2-0.4-0.6-0.7-0.9-1.2   c-0.9-1-1.9-2.1-2.3-3.8c-0.4-1.8,1.4-3.3,1.5-3.3c0.7-0.6,0.8-1.6,0.2-2.4c-0.6-0.7-1.6-0.8-2.4-0.3c-0.1,0.1-3.4,2.8-2.6,6.6   C263.1,179.4,264.6,181.1,265.6,182.2z"
   id="path15" />&#10;	<path
   d="M273.7,182.2c0.2,0.3,0.5,0.6,0.6,0.7c0.7,1,1.2,1.9,0.8,3c-0.3,1.1-1.3,2.4-1.7,2.9c-0.6,0.7-0.5,1.8,0.2,2.4   c0.3,0.3,0.7,0.4,1.1,0.4c0.5,0,1-0.2,1.3-0.6c0.2-0.2,1.7-2.1,2.3-4c0.8-2.6-0.5-4.7-1.2-5.8c-0.2-0.4-0.6-0.7-0.9-1.2   c-0.9-1-1.9-2.1-2.3-3.8c-0.4-1.8,1.4-3.3,1.5-3.3c0.7-0.6,0.8-1.6,0.2-2.4c-0.6-0.7-1.6-0.8-2.4-0.3c-0.1,0.1-3.4,2.8-2.6,6.6   C271.1,179.4,272.7,181.1,273.7,182.2z"
   id="path16" />&#10;	<path
   d="M283,192.8h-31.8c-0.9,0-1.7,0.8-1.7,1.7c0,0.9,0.8,1.7,1.7,1.7H283c0.9,0,1.7-0.8,1.7-1.7   C284.6,193.5,283.9,192.8,283,192.8z"
   id="path17" />&#10;</g>&#10;<g
   id="obj_room-sensor"
   class="stNotAvailable"><title
   id="title17">Raumfühler || Raumbediengerät</title>&#10;	<path
   class="st1"
   d="M376.3,176.6v-30h-6c-1.1,0-2,0.9-2,2v26c0,1.1,0.9,2,2,2H376.3z M374.9,156.6h-5.2   v-2h5.2V156.6z M374.9,160.6h-5.2v-2h5.2V160.6z M374.9,164.6h-5.2v-2h5.2V164.6z M374.9,168.5h-5.2v-2h5.2V168.5z"
   id="path18" />&#10;</g>&#10;<g
   id="label_outside-temp"><title
   id="title18">Außentemperatur</title>&#10;	<path
   id="frame_2_"
   class="st7"
   d="M200.3,71.9h-71c-1.7,0-3-1.4-3-3V45.4c0-1.6,1.3-3,3-3h71c1.6,0,3,1.4,3,3v23.5   C203.3,70.5,201.9,71.9,200.3,71.9z" />&#10;	<g
   id="symb_outside-temp">&#10;		<path
   class="st8"
   d="M155.2,71.9h-26c-1.7,0-3-1.4-3-3V45.4c0-1.6,1.3-3,3-3h26c1.6,0,3,1.4,3,3v23.5    C158.2,70.5,156.9,71.9,155.2,71.9z"
   id="path19" />&#10;		<g
   id="g26">&#10;			<rect
   x="148"
   y="52.5"
   class="st9"
   width="2"
   height="1.3"
   id="rect19" />&#10;			<rect
   x="148"
   y="50.1"
   class="st9"
   width="2"
   height="1.3"
   id="rect20" />&#10;			<path
   class="st9"
   d="M152.6,56.8v-6.8c0-1.5-2.2-1.5-2.2,0v6.8c-1,0.4-1.6,1.4-1.6,2.5c0,1.5,1.2,2.7,2.7,2.7     c1.5,0,2.7-1.2,2.7-2.7C154.2,58.2,153.5,57.2,152.6,56.8z"
   id="path20" />&#10;			<rect
   x="148"
   y="54.9"
   class="st9"
   width="2"
   height="1.3"
   id="rect21" />&#10;			&#10;				<rect
   x="130.4"
   y="60"
   transform="matrix(0.7071 -0.7071 0.7071 0.7071 -4.4364 110.8188)"
   class="st9"
   width="2.2"
   height="1.5"
   id="rect22" />&#10;			<rect
   x="139.4"
   y="51"
   transform="matrix(0.7071 -0.7071 0.7071 0.7071 4.5484 114.542)"
   class="st9"
   width="2.2"
   height="1.5"
   id="rect23" />&#10;			<rect
   x="135.3"
   y="48.8"
   class="st9"
   width="1.5"
   height="2.2"
   id="rect24" />&#10;			<path
   class="st9"
   d="M142.6,55.9h-0.5v1.8h0.5c0,0,0.1,0,0.4,0c3.1,0.6,3,5.5,0.1,5.9H134c-1,0-1-0.1-1.6-0.8l-1.3,1.2     c0,0,0.2,0.3,0.7,0.7c0.5,0.5,1.5,0.7,2.3,0.7l9.2,0c0,0,0.3,0,0.7-0.1C148.7,63.8,147.7,55.8,142.6,55.9z"
   id="path24" />&#10;&#10;				<rect
   x="130.8"
   y="50.7"
   transform="matrix(0.7071 -0.7071 0.7071 0.7071 1.9176 108.1906)"
   class="st9"
   width="1.5"
   height="2.2"
   id="rect25" />&#10;			<rect
   x="128.6"
   y="55.5"
   class="st9"
   width="2.2"
   height="1.5"
   id="rect26" />&#10;			<path
   class="st9"
   d="M136.1,51.5c-2.7,0-4.8,2.2-4.8,4.8s2.2,4.8,4.8,4.8c2.7,0,4.8-2.2,4.8-4.8S138.7,51.5,136.1,51.5z      M136.1,59.4c-1.7,0-3.1-1.4-3.1-3.1c0-1.7,1.4-3.1,3.1-3.1c1.7,0,3.1,1.4,3.1,3.1C139.1,58,137.8,59.4,136.1,59.4z"
   id="path26" />&#10;		</g>&#10;	</g>&#10;</g>&#10;<text
   id="sensor.froeling_aussentemperatur"
   transform="matrix(1 0 0 1 180 62.6916)"
   class="st1 st10 st11">0°C</text>&#10;<g
   id="label_flow-temp"><title
   id="title26">Vorlauftemperatur</title>&#10;	<path
   id="frame"
   class="st7"
   d="M184.3,200.7h-53c-1.6,0-3-1.3-3-3v-23.5c0-1.6,1.4-3,3-3h53c1.6,0,3,1.4,3,3v23.5   C187.3,199.3,185.9,200.7,184.3,200.7z" />&#10;	<g
   id="symb_flow-temp">&#10;		<path
   class="st8"
   d="M141.3,200.7h-10c-1.6,0-3-1.3-3-3v-23.5c0-1.6,1.4-3,3-3h10c1.6,0,3,1.4,3,3v23.5    C144.3,199.3,142.9,200.7,141.3,200.7z"
   id="path27" />&#10;		<g
   id="g29">&#10;			<rect
   x="131.6"
   y="181.9"
   class="st9"
   width="2.9"
   height="2"
   id="rect27" />&#10;			<rect
   x="131.6"
   y="178.3"
   class="st9"
   width="2.9"
   height="2"
   id="rect28" />&#10;			<path
   class="st9"
   d="M138.6,188.3v-10.3c0-2.2-3.3-2.2-3.3,0v10.3c-1.4,0.6-2.5,2.1-2.5,3.8c0,2.3,1.8,4.1,4.1,4.1     c2.3,0,4.1-1.8,4.1-4.1C141,190.4,140,189,138.6,188.3z"
   id="path28" />&#10;			<rect
   x="131.6"
   y="185.5"
   class="st9"
   width="2.9"
   height="2"
   id="rect29" />&#10;		</g>&#10;	</g>&#10;</g>&#10;<text
   id="sensor.froeling_hk1_vorlauf_isttemperatur"
   transform="matrix(1 0 0 1 165 191.5317)"
   class="st1 st10 st11">0°C</text>&#10;<g
   id="label_room-temp"
   class="stNotAvailable"><title
   id="title29">Raumtemperatur</title>&#10;	<path
   id="frame_1_"
   class="st7"
   d="M301.6,143.3h-71c-1.7,0-3-1.4-3-3v-23.5c0-1.7,1.3-3,3-3h71c1.6,0,3,1.3,3,3v23.5   C304.6,142,303.2,143.3,301.6,143.3z" />&#10;	<g
   id="symb_room-temp">&#10;		<path
   class="st8"
   d="M256.5,143.3h-26c-1.7,0-3-1.4-3-3v-23.5c0-1.7,1.3-3,3-3h26c1.6,0,3,1.3,3,3v23.5    C259.5,142,258.1,143.3,256.5,143.3z"
   id="path29" />&#10;		<g
   id="g32">&#10;			<polygon
   class="st9"
   points="242.7,115.7 229.7,128.5 233.5,128.5 233.5,140.2 235.8,140.2 235.8,126.1 242.7,119.2 250,126.1      250,140.2 252.2,140.2 252.2,128.5 256.4,128.5"
   id="polygon29" />&#10;			<rect
   x="244.3"
   y="131.4"
   class="st9"
   width="2.4"
   height="1.7"
   id="rect30" />&#10;			<rect
   x="244.3"
   y="128.4"
   class="st9"
   width="2.4"
   height="1.7"
   id="rect31" />&#10;			<rect
   x="244.3"
   y="125.4"
   class="st9"
   width="2.4"
   height="1.7"
   id="rect32" />&#10;			<path
   class="st9"
   d="M243.7,133.7v-8.4c0-1.8-2.7-1.8-2.7,0v8.4c-1.2,0.5-2,1.7-2,3.1c0,1.9,1.5,3.4,3.4,3.4     c1.9,0,3.4-1.5,3.4-3.4C245.7,135.4,244.9,134.2,243.7,133.7z"
   id="path32" />&#10;		</g>&#10;	</g>&#10;</g>&#10;<text
   id="txt_room-temp"
   transform="matrix(1 0 0 1 282 134.147)"
   class="st1 st10 st11 stNotAvailable">-</text>&#10;</svg>
