<?xml version="1.0" encoding="UTF-8" standalone="no"?>
<svg
   version="1.1"
   id="Layer_1"
   x="0px"
   y="0px"
   width="100%"
   viewBox="0 0 2111 1217"
   enable-background="new 0 0 2111 1217"
   xml:space="preserve"
   sodipodi:docname="froeling_solarthermie.svg"
   inkscape:version="1.3.1 (91b66b0783, 2023-11-16)"
   xmlns:inkscape="http://www.inkscape.org/namespaces/inkscape"
   xmlns:sodipodi="http://sodipodi.sourceforge.net/DTD/sodipodi-0.dtd"
   xmlns="http://www.w3.org/2000/svg"
   xmlns:svg="http://www.w3.org/2000/svg"><defs
   id="defs72"><rect
     x="1088.1226"
     y="189.42173"
     width="156.7991"
     height="92.606181"
     id="rect85" /><rect
     x="1102.8554"
     y="990.25474"
     width="157.85145"
     height="93.658524"
     id="rect84" /></defs><sodipodi:namedview
   id="namedview72"
   pagecolor="#505050"
   bordercolor="#eeeeee"
   borderopacity="1"
   inkscape:showpageshadow="0"
   inkscape:pageopacity="0"
   inkscape:pagecheckerboard="0"
   inkscape:deskcolor="#d1d1d1"
   inkscape:zoom="0.47513027"
   inkscape:cx="954.47507"
   inkscape:cy="581.94566"
   inkscape:window-width="1920"
   inkscape:window-height="1017"
   inkscape:window-x="-8"
   inkscape:window-y="-8"
   inkscape:window-maximized="1"
   inkscape:current-layer="g77" />
<path
   fill="#ffffff"
   opacity="1"
   stroke="none"
   d="m 1541,1218 c -513.6665,0 -1026.83301,0 -1539.999656,0 C 1.000229,812.33362 1.000229,406.66721 1.000115,1.000616 704.6662,1.000411 1408.3324,1.000411 2111.999,1.000206 c 3e-4,405.665844 3e-4,811.331884 5e-4,1216.998794 C 1921.8334,1218 1731.6666,1218 1541,1218 M 996.54059,887.62018 c 10.99431,-15.10962 32.22841,-20.90656 49.75941,-14.10541 7.5356,2.92346 12.9081,8.38519 18.7411,13.98456 0.1267,0.28625 0.2533,0.57257 0.3799,0.85888 0.1167,-0.10925 0.3488,-0.29187 0.3329,-0.31665 -0.2301,-0.36126 -0.4935,-0.70129 -0.6622,-1.82373 -0.1728,-0.97332 -10e-4,-2.4458 -0.573,-2.84076 -4.3955,-3.0346 -3.4881,-7.52374 -3.511,-11.77569 -0.014,-2.49744 -0.189,-5.01209 0.039,-7.48853 0.3719,-4.03582 -1.4366,-5.15435 -5.2538,-5.1137 -14.6501,0.15618 -29.303,0.0629 -43.9549,0.0629 -12.8137,-6e-5 -12.74467,6.7e-4 -12.86473,12.90943 -0.0282,3.03863 -0.56689,6.09393 -1.1062,9.09936 -0.42224,2.35315 -1.2085,4.64093 -2.15912,6.9953 0.09,-0.0324 0.17993,-0.0648 0.83234,-0.44592 M 570.27814,233.2265 c 8.39825,-6.43135 16.79651,-12.86269 25.34283,-19.40742 -6.43652,-8.62288 -12.5487,-16.81116 -18.72894,-25.09069 -108.09592,80.36417 -215.63553,160.31479 -323.28668,240.3483 6.52563,8.75027 12.64013,16.94925 18.8414,25.26456 9.49719,-7.09348 18.55584,-13.85935 28.31976,-20.07486 0.13327,5.53314 0.26654,11.06631 0.19821,17.28357 -2.11648,1.78781 -4.1449,3.69381 -6.36276,5.34552 -29.89484,22.26342 -59.81081,44.49847 -89.7381,66.71829 -3.20227,2.37756 -6.01321,4.31244 -6.00795,9.36639 0.17145,164.44971 0.1406,328.89966 0.15315,493.34954 1.4e-4,1.7557 0.17629,3.5116 0.26827,5.2297 13.151,0 25.71486,0 38.72532,0 0,-2.5264 -10e-6,-4.6623 -10e-6,-6.7983 10e-6,-157.28539 0.0155,-314.57079 -0.0942,-471.85613 -0.003,-3.73474 1.04996,-6.14404 3.99614,-8.30017 19.7793,-14.47522 39.4783,-29.06018 59.22577,-42.67151 0,141.24927 0,282.49853 0,424.23163 216.86597,0 433.08118,0 649.8689,0 0,2.7561 0.0981,5.04156 -0.0259,7.31494 -0.14044,2.57208 0.55163,4.15411 3.5,4.20447 3.00946,0.0514 4.20105,-1.36158 4.19488,-4.23712 -0.0269,-12.49769 -0.0585,-24.99579 0.0265,-37.49299 0.0207,-3.0487 -1.21399,-4.04419 -4.19677,-4.02795 -3.02314,0.0165 -3.69349,1.42902 -3.52607,4.03455 0.13398,2.08483 0.0271,4.18511 0.0271,6.70361 -2.81689,0 -4.95684,-6e-5 -7.09674,-6e-5 -127.47705,0 -254.9541,-10e-4 -382.43115,0.0118 -2.1571,2.4e-4 -4.31415,0.17553 -6.71198,-0.63001 -0.0735,-4.48962 -0.12231,-8.97986 -0.22753,-13.46875 -0.0993,-4.23767 -2.0672,-6.25561 -6.54761,-6.21521 -15.31586,0.13813 -30.63483,0.15168 -45.95032,-0.005 -4.80981,-0.0492 -6.57498,2.27404 -6.67889,6.64233 -0.11063,4.64929 -0.26322,9.29761 -1.30866,13.72491 -56.24762,0 -112.49521,0 -169.04437,0 0,-2.80359 0,-4.79052 0,-6.77752 0,-76.81385 0.008,-153.62769 -0.003,-230.44153 -0.008,-60.48413 -0.0401,-120.96826 0.24359,-182.06845 0.44308,-0.49359 0.81759,-1.07932 1.33908,-1.46759 34.50631,-25.69342 69.01977,-51.37723 103.54312,-77.0477 31.73675,-23.59848 63.4624,-47.21198 95.24643,-70.74668 7.0108,-5.19125 14.24658,-10.07861 21.45862,-14.17935 0,125.24396 0,250.48792 0,375.77613 447.67681,0 894.65462,0 1341.70102,0 0,-7.9502 0,-15.52222 0,-23.1355 -3.3152,0 -6.3074,6e-5 -9.2996,6e-5 -379.2718,0 -758.5437,-2.4e-4 -1137.81542,0.005 -2.16407,0 -4.32807,0.0811 -6.72022,-0.74115 -0.0577,-4.31018 -0.13513,-8.62024 -0.16779,-12.9306 -0.0333,-4.39734 -1.82415,-6.66974 -6.61511,-6.62128 -15.26367,0.15436 -30.531,0.16107 -45.79443,-0.002 -4.73096,-0.0506 -6.66309,2.112 -6.77564,6.51044 -0.11859,4.63592 -0.22656,9.27209 -1.27185,13.79706 -34.55792,0 -69.11578,0 -103.92523,0 0,-2.93305 2.4e-4,-5.08881 -6e-5,-7.24457 -0.0173,-121.21521 -0.0347,-242.43039 0.31866,-364.17035 0.79975,-0.84461 1.49567,-1.8284 2.41425,-2.5137 32.6532,-24.35916 65.32257,-48.69669 98.01032,-73.00948 1.90563,-1.41737 3.59771,-2.24916 6.16918,-0.30806 15.07105,11.37651 30.36884,22.45195 45.526,33.71527 29.50757,21.9271 58.95392,43.93646 88.46052,65.86487 31.50689,23.41504 63.06982,46.75479 94.57922,70.16647 29.51453,21.92954 58.99725,43.90186 88.48266,65.87049 33.34944,24.84762 66.67764,49.72384 100.03514,74.56076 7.9088,5.88861 15.8973,11.66992 23.9656,17.586 7.9931,-10.69654 15.5957,-20.87037 23.3335,-31.2251 -156.19097,-116.02322 -311.80657,-231.61862 -467.38708,-347.188 -1.33148,1.15791 -2.04211,1.8627 -2.83691,2.45453 -27.49719,20.47518 -54.96338,40.99232 -82.53705,61.36401 -5.94965,4.39566 -12.29053,8.26195 -18.51343,11.44139 -0.0829,-5.41174 -0.16571,-10.82349 0.11231,-16.79181 M 1677.5,927.86938 c 70.2847,0 140.5695,0 211.0765,0 0,-8.75103 0,-16.94574 0,-25.75286 -260.2479,0 -520.1291,0 -779.9287,0 -1.4046,-10.7652 -1.4046,-10.7652 -7.7539,-9.24897 0,13.97211 -0.064,28.0965 0.1485,42.21668 0.014,0.90918 2.2491,2.59161 3.2932,2.47699 1.3447,-0.14759 3.2269,-1.5257 3.6228,-2.77222 0.612,-1.92712 0.1614,-4.19171 0.1614,-6.9198 189.8291,0 379.1047,0 569.3802,1.8e-4 M 967,1010.5 c 0,23.1528 -0.002,46.3055 9.2e-4,69.4584 0.001,10.4233 5.54473,16.04 15.84008,16.0403 91.7783,0 183.5565,0 275.3348,0 10.7921,-3e-4 15.8197,-5.0318 15.8221,-15.8423 0.01,-28.4829 -0.3506,-56.9722 0.1619,-85.44589 0.2306,-12.82043 -6.3552,-18.76831 -18.6661,-18.74811 -89.9458,0.14759 -179.892,0.0795 -269.83806,0.0795 -0.99939,0 -1.99945,-0.0241 -2.99805,0.004 -10.15161,0.28967 -15.62225,5.86248 -15.65423,15.96417 -0.0184,5.82977 -0.003,11.65973 -0.003,18.48953 M 1212.5004,175.0182 c -33.3202,0 -66.6403,-3e-5 -99.9604,0 -47.1481,6e-5 -94.2963,-0.01 -141.44436,0.007 -11.58686,0.004 -17.08857,5.3534 -17.09192,16.53424 -0.009,29.32178 -0.009,58.64357 3.6e-4,87.96535 0.003,9.62784 5.86298,15.47049 15.51026,15.47089 91.96386,0.004 183.92756,0.004 275.89136,4e-4 9.6886,-3.4e-4 15.5865,-5.8129 15.5904,-15.39347 0.012,-29.15518 0.01,-58.31035 0,-87.46553 0,-11.77634 -5.2576,-17.07931 -17.0108,-17.1129 -10.1626,-0.0291 -20.3253,-0.006 -31.488,-0.006 m -1084.00004,1.03673 c -23.66574,4e-5 -47.331596,-0.0431 -70.997173,0.0195 -10.797776,0.0286 -18.01323,4.81895 -17.719677,17.36795 0.681884,29.14963 0.216968,58.32607 0.217254,87.49164 1.07e-4,10.81674 4.247723,15.06436 15.084038,15.0646 82.663558,0.002 165.327098,9.2e-4 247.990658,8.9e-4 9.99964,0 19.9997,0.0584 29.99872,-0.0201 7.21414,-0.0567 12.87448,-5.42124 12.89169,-12.46894 0.0765,-31.33195 0.13508,-62.66508 -0.13311,-93.99495 -0.0253,-2.95462 -1.88132,-6.26341 -3.75644,-8.75325 -3.59866,-4.77851 -9.29181,-4.66526 -14.58344,-4.66986 -65.99746,-0.0572 -131.99501,-0.0374 -198.99252,-0.0375 m 1334.00004,799.9848 c -32.9932,6e-5 -65.9862,-0.007 -98.9794,0.004 -11.8833,0.004 -17.4828,5.51562 -17.4897,17.24017 -0.017,28.82734 0.1542,57.65614 -0.1072,86.48104 -0.074,8.1742 5.5273,16.4436 16.3175,16.4134 105.8104,-0.2963 211.622,-0.1782 317.4332,-0.1791 11.1014,-10e-5 16.2964,-5.2606 16.3007,-16.5586 0.011,-28.494 0.01,-56.9881 0,-85.48218 0,-12.25525 -5.6954,-17.91656 -18.0217,-17.91717 -71.4851,-0.003 -142.9701,-10e-4 -215.4552,-0.002 M 504.9552,874.99438 c 68.66217,10e-4 137.32428,0.008 205.98645,-0.003 10.35175,-0.002 16.04321,-5.70008 16.0506,-16.06366 0.0209,-29.33136 -0.1471,-58.66407 0.0929,-87.99347 0.0818,-9.99408 -7.83014,-16.14142 -16.20929,-16.10407 -67.99414,0.30316 -135.99023,0.16907 -203.98571,0.17157 -10.13144,3.7e-4 -15.88501,5.61224 -15.88751,15.51282 -0.007,29.16473 -0.003,58.32947 -0.003,87.4942 1.2e-4,10.18829 3.11899,14.23651 13.95508,16.98608 M 758.5,646 c 44.64899,0 89.29804,0.014 133.94702,-0.0113 9.43408,-0.005 14.54767,-5.12751 14.55011,-14.42084 0.008,-29.82153 0.004,-59.64307 0.002,-89.4646 -7.3e-4,-10.37115 -5.57404,-16.08868 -15.85034,-16.09155 -68.13971,-0.0189 -136.27936,-0.02 -204.41907,10e-4 -9.5166,0.003 -15.69373,6.07501 -15.70795,15.48737 -0.0449,29.65484 -0.0444,59.30993 -6.1e-4,88.96478 0.0144,9.72003 5.89124,15.52899 15.50672,15.53223 23.65728,0.008 47.31463,0.003 71.97192,0.003 M 1972.849,658.6224 c 0,4.62043 0,9.24085 0,14.31409 -14.945,0 -29.3659,0 -44.2408,0 0,8.15704 0,15.8468 0,23.97925 14.8218,0 29.254,0 44.3313,0 0,7.75226 0,15.08673 0,23.19202 20.602,-11.97419 40.366,-23.46119 60.8138,-35.34571 -20.5914,-11.81933 -40.3958,-23.18701 -60.9044,-34.9588 0,3.26563 0,5.56897 10e-5,8.81915 m -30.3762,264.35913 c 15.3085,8.7652 30.6171,17.53046 46.8451,26.82221 0,-8.38061 0,-15.47113 0,-23.02557 2.2868,0 4.0833,-7e-5 5.8798,-7e-5 11.315,-1.2e-4 22.6319,0.0933 33.9432,-0.11212 1.5026,-0.0273 4.219,-1.50695 4.2672,-2.4245 0.3627,-6.9115 0.1978,-13.85077 0.1978,-21.31231 -14.8883,0 -29.4395,0 -44.5578,0 0,-7.88031 0,-15.23981 0,-23.513 -20.56,11.95434 -40.28,23.42028 -60.722,35.30603 4.9914,2.9292 9.2439,5.42468 14.1467,8.25933 m -924.5993,27.8639 c 12.3081,4.35272 23.7845,2.50073 34.4775,-4.74036 13.8352,-9.36896 19.5885,-27.10046 15.0715,-43.42975 -4.2877,-15.50006 -21.2633,-28.35553 -36.992,-27.85217 -25.7087,0.82287 -43.49515,25.11426 -36.65537,49.74737 3.50104,12.60914 11.73387,20.77991 24.09837,26.27491 M 988.63141,902.7309 c -6.71216,-0.37348 -13.42432,-0.74701 -20.35285,-1.13251 -0.18927,-3.16742 -0.36395,-6.09046 -0.55133,-9.22644 -3.5039,-0.45148 -6.75653,-1.37927 -6.74157,3.80182 0.036,12.49487 0.0773,24.9906 -0.039,37.48449 -0.0262,2.8263 1.41834,4.43543 3.73176,3.99231 1.60662,-0.30767 3.48925,-2.18566 4.11621,-3.80145 0.71276,-1.83667 0.16467,-4.16272 0.16467,-6.93115 6.99481,0 13.39331,0 19.94128,0 0,-8.22254 0,-15.7851 -0.26916,-24.18707 m 90.94918,24.16668 c 3.6097,0 7.2193,0 11.066,0 0.2564,3.6742 0.4697,6.73126 0.6721,9.6319 4.9136,1.32422 6.8734,-0.0358 6.7648,-4.98377 -0.2482,-11.3056 -0.062,-22.62048 -0.085,-33.93145 -0.012,-5.74585 -0.5305,-6.12317 -6.7421,-4.94892 -0.082,1.04279 -0.3788,2.19788 -0.2245,3.28931 0.6922,4.89856 -1.4325,6.52008 -6.1885,6.11237 -4.0836,-0.3501 -8.2211,-0.0726 -12.5088,-0.0726 0.2505,4.50806 0.6519,8.41956 0.634,12.32905 -0.018,4.03088 -0.4453,8.05993 -0.7233,12.57397 2.4512,0 4.4145,0 7.3358,1.8e-4 m -22.1837,20.96637 c -1.0033,0.76721 -2.0066,1.53443 -3.4977,2.67475 9.879,-0.58191 11.9095,-2.72742 12.6183,-12.08966 -2.9237,3.08001 -5.7387,6.04547 -9.1206,9.41491 m -51.5141,1.58893 c -3.507,-3.17371 -7.01389,-6.34741 -10.37394,-9.38824 -0.43628,7.7138 4.15173,12.09436 10.37394,9.38824 z"
   id="path1"
   style="display:inline"
   inkscape:label="background" />
<g
   id="g79"
   inkscape:label="haus"><path
     fill="#c9c9c9"
     opacity="1"
     stroke="none"
     d="m 301.10797,500.99524 c -19.72507,14.54938 -39.42407,29.13434 -59.20337,43.60956 -2.94618,2.15613 -3.99873,4.56543 -3.99614,8.30017 0.1097,157.28534 0.0942,314.57074 0.0942,471.85613 0,2.136 1e-5,4.2719 1e-5,6.7983 -13.01046,0 -25.57432,0 -38.72532,0 -0.092,-1.7181 -0.26813,-3.474 -0.26827,-5.2297 -0.0126,-164.44988 0.0183,-328.89983 -0.15315,-493.34954 -0.005,-5.05395 2.80568,-6.98883 6.00795,-9.36639 29.92729,-22.21982 59.84326,-44.45487 89.7381,-66.71829 2.21786,-1.65171 4.24628,-3.55771 6.80374,-5.68451 8.18652,-5.99021 15.9321,-11.64139 23.98553,-17.41129 1.66071,-1.07922 3.03202,-2.01486 4.36365,-3.004 24.60663,-18.27633 49.2038,-36.56539 73.81272,-54.83868 25.81051,-19.16559 51.66391,-38.27359 77.43753,-57.48862 22.03888,-16.4306 43.99145,-32.97705 66.29748,-49.59723 2.07575,-1.38479 3.89661,-2.56903 5.5857,-3.91824 5.80481,-4.63681 11.56347,-9.33137 17.33978,-14.00394 6.16064,-4.1101 12.50152,-7.97639 18.45117,-12.37205 27.57367,-20.37169 55.03986,-40.88883 82.53705,-61.36401 0.7948,-0.59183 1.50543,-1.29662 2.83691,-2.45453 155.58051,115.56938 311.19611,231.16478 467.38746,347.18791 -7.7378,10.35473 -15.3404,20.52856 -23.3335,31.2251 -8.0683,-5.91608 -16.0568,-11.69739 -23.9656,-17.586 -33.3575,-24.83692 -66.6857,-49.71314 -100.03514,-74.56076 -29.48541,-21.96863 -58.96813,-43.94095 -88.48266,-65.87049 -31.5094,-23.41168 -63.07233,-46.75143 -94.57922,-70.16647 -29.5066,-21.92841 -58.95295,-43.93777 -88.46052,-65.86487 -15.15716,-11.26332 -30.45495,-22.33876 -45.526,-33.71527 -2.57147,-1.9411 -4.26355,-1.10931 -6.16918,0.30806 -32.68775,24.31279 -65.35712,48.65032 -98.01032,73.00948 -0.91858,0.6853 -1.6145,1.66909 -2.96204,2.83145 -8.08728,6.04932 -15.62683,11.78088 -23.16638,17.51245 -7.1322,5.02725 -14.36798,9.91461 -21.37878,15.10586 -31.78403,23.5347 -63.50968,47.1482 -95.24643,70.74668 -34.52335,25.67047 -69.03681,51.35428 -103.54312,77.0477 -0.52149,0.38827 -0.896,0.974 -1.83539,1.77939 -8.21036,5.95675 -15.92441,11.60171 -23.63843,17.24664 z"
     id="path2"
     style="display:inline" /></g>
<g
   id="g78"
   inkscape:label="supply-line"><path
     fill="#C86464"
     opacity="1.000000"
     stroke="none"
     d=" M546.790039,319.532227   C554.289673,313.337402 561.829224,307.605835 569.731079,301.818909   C570.110901,422.978729 570.128296,544.193909 570.145630,665.409119   C570.145935,667.564880 570.145691,669.720642 570.145691,672.653687   C604.955139,672.653687 639.513000,672.653687 675.001221,672.677979   C695.595642,672.723450 715.259766,672.744568 734.923828,672.765686   C737.087891,672.722534 739.251892,672.641479 741.415955,672.641479   C1120.687744,672.635925 1499.959595,672.636169 1879.231445,672.636169   C1882.223633,672.636169 1885.215820,672.636108 1888.531006,672.636108   C1888.531006,680.249390 1888.531006,687.821411 1888.531006,695.771606   C1441.484619,695.771606 994.506775,695.771606 546.829956,695.771606   C546.829956,570.483398 546.829956,445.239441 546.790039,319.532227  M1504.610596,682.856567   C1499.709229,680.650574 1494.807861,678.444580 1489.764282,676.174622   C1489.764282,682.148193 1489.764282,687.468567 1489.764282,693.458557   C1496.158569,690.491577 1501.950317,687.804199 1508.432129,684.796631   C1506.713623,683.887939 1505.989624,683.505188 1504.610596,682.856567  M796.824524,690.239441   C800.468018,688.510437 804.111511,686.781494 808.547363,684.676514   C801.759277,681.559814 795.985657,678.908936 789.950500,676.137939   C789.950500,682.175476 789.950500,687.434448 789.950500,693.354797   C792.334473,692.299011 794.245972,691.452454 796.824524,690.239441  M564.967163,460.569366   C565.511047,459.212189 566.054932,457.854980 566.651367,456.366608   C561.005737,456.366608 555.687500,456.366608 549.893921,456.366608   C552.847351,462.709869 555.572571,468.563049 558.477539,474.802246   C560.665100,470.023743 562.668701,465.647064 564.967163,460.569366  z"
     id="path3" /><path
     fill="#6F8DA1"
     opacity="1.000000"
     stroke="none"
     d=" M1677.000000,927.869263   C1487.224487,927.869202 1297.948853,927.869202 1108.119751,927.869202   C1108.119751,930.597290 1108.570435,932.861877 1107.958374,934.789001   C1107.562500,936.035522 1105.680298,937.413635 1104.335571,937.561218   C1103.291504,937.675842 1101.056030,935.993408 1101.042358,935.084229   C1100.829956,920.964050 1100.893921,906.839661 1100.893921,892.867554   C1107.243164,891.351318 1107.243164,891.351318 1108.647827,902.116516   C1368.447388,902.116516 1628.328613,902.116516 1888.576538,902.116516   C1888.576538,910.923645 1888.576538,919.118347 1888.576538,927.869385   C1818.069458,927.869385 1747.784668,927.869385 1677.000000,927.869263  M1501.788818,920.721252   C1503.680664,921.513855 1505.572388,922.306396 1507.729736,923.210266   C1507.729736,917.350220 1507.729736,912.261230 1507.729736,906.269897   C1501.494751,909.148254 1495.828003,911.764282 1489.282471,914.785950   C1493.945923,916.982605 1497.529785,918.670715 1501.788818,920.721252  z"
     id="path5" /><path
     fill="#C96666"
     opacity="1.000000"
     stroke="none"
     d=" M1972.849121,658.148926   C1972.849121,655.372131 1972.849121,653.068787 1972.849121,649.803162   C1993.357666,661.574951 2013.162109,672.942627 2033.753540,684.761963   C2013.305664,696.646484 1993.541748,708.133484 1972.939697,720.107666   C1972.939697,712.002380 1972.939697,704.667908 1972.939697,696.915649   C1957.862427,696.915649 1943.430176,696.915649 1928.608398,696.915649   C1928.608398,688.783203 1928.608398,681.093445 1928.608398,672.936401   C1943.483276,672.936401 1957.904175,672.936401 1972.849243,672.936401   C1972.849243,667.863159 1972.849243,663.242737 1972.849121,658.148926  z"
     id="path13" /><path
     fill="#6F8DA1"
     opacity="1.000000"
     stroke="none"
     d=" M1942.147949,922.811890   C1937.570190,920.146790 1933.317749,917.651306 1928.326294,914.722107   C1948.768311,902.836365 1968.488281,891.370422 1989.048340,879.416077   C1989.048340,887.689270 1989.048340,895.048767 1989.048340,902.929077   C2004.166626,902.929077 2018.717773,902.929077 2033.606079,902.929077   C2033.606079,910.390625 2033.770996,917.329895 2033.408325,924.241394   C2033.360107,925.158936 2030.643677,926.638611 2029.141113,926.665894   C2017.829834,926.871277 2006.512939,926.777893 1995.197876,926.778015   C1993.401367,926.778015 1991.604858,926.778076 1989.318115,926.778076   C1989.318115,934.332520 1989.318115,941.423035 1989.318115,949.803650   C1973.090088,940.511902 1957.781494,931.746643 1942.147949,922.811890  z"
     id="path14" /><path
     fill="#6F8DA0"
     opacity="1.000000"
     stroke="none"
     d=" M301.119141,501.464264   C308.821991,495.350311 316.536041,489.705353 324.593842,484.056610   C324.958984,544.536987 324.990662,605.021118 324.999115,665.505249   C325.009857,742.319092 325.001770,819.132935 325.001770,895.946777   C325.001770,897.933777 325.001770,899.920715 325.001770,902.724304   C381.550934,902.724304 437.798523,902.724304 494.963440,902.731445   C515.587158,902.807495 535.293518,902.876343 554.999878,902.945251   C557.156982,902.851685 559.314026,902.676392 561.471130,902.676147   C688.948181,902.663025 816.425232,902.664368 943.902283,902.664368   C946.042175,902.664368 948.182129,902.664429 950.999023,902.664429   C950.999023,900.145935 951.105896,898.045654 950.971924,895.960815   C950.804504,893.355286 951.474854,891.942749 954.497986,891.926270   C957.480774,891.910034 958.715454,892.905518 958.694763,895.954224   C958.609741,908.451416 958.641357,920.949524 958.668213,933.447205   C958.674377,936.322754 957.482788,937.735718 954.473328,937.684326   C951.524963,937.633972 950.832886,936.051941 950.973328,933.479858   C951.097412,931.206482 950.999268,928.921021 950.999268,926.164917   C734.211548,926.164917 517.996338,926.164917 301.130371,926.164917   C301.130371,784.431824 301.130371,643.182556 301.119141,501.464264  M612.477234,910.074219   C609.435425,911.527832 606.393555,912.981445 602.538147,914.823853   C609.258606,917.892700 615.051514,920.538025 621.317627,923.399414   C621.317627,917.279785 621.317627,911.959351 621.317627,906.123596   C618.282104,907.487427 615.726807,908.635498 612.477234,910.074219  M313.503967,712.137756   C316.194427,712.137756 318.884857,712.137756 322.188171,712.137756   C319.060028,705.394653 316.363342,699.581604 313.470337,693.345398   C310.557465,699.707947 307.839142,705.645508 304.866821,712.137939   C307.957977,712.137939 310.263641,712.137939 313.503967,712.137756  z"
     id="path4" /><path
     fill="#6F8DA1"
     opacity="1.000000"
     stroke="none"
     d=" M300.413849,433.991180   C308.088409,427.830261 316.115631,421.944550 324.551208,416.459106   C325.000824,422.545746 325.042084,428.232056 325.083344,433.918396   C317.337799,439.569580 309.592224,445.220764 301.506470,450.868896   C301.033051,445.332703 300.899780,439.799530 300.413849,433.991180  z"
     id="path21" /><path
     fill="#C86464"
     opacity="1.000000"
     stroke="none"
     d=" M546.911743,250.598541   C554.354187,245.058975 561.796631,239.519424 569.578186,233.881470   C570.000122,239.194824 570.082947,244.606567 570.196960,250.483643   C564.451782,255.621536 558.693115,260.316101 552.888306,264.952911   C551.199219,266.302124 549.378357,267.486359 547.257080,268.405884   C546.857300,262.725098 546.818481,257.384674 546.859253,251.687073   C546.929810,251.086121 546.920776,250.842346 546.911743,250.598541  z"
     id="path22" /></g>




<g
   id="g80"
   inkscape:label="kollektor"><path
     fill="#CCCCCC"
     opacity="1.000000"
     stroke="none"
     d=" M129.000000,176.055420   C195.497513,176.055435 261.495056,176.035583 327.492523,176.092834   C332.784149,176.097427 338.477295,175.984177 342.075958,180.762695   C343.951080,183.252533 345.807068,186.561325 345.832397,189.515945   C346.100586,220.845810 346.042053,252.178940 345.965515,283.510895   C345.948303,290.558594 340.287964,295.923157 333.073822,295.979828   C323.074799,296.058411 313.074738,295.999969 303.075104,295.999969   C220.411545,296.000000 137.748001,296.000763 55.084442,295.999084   C44.248127,295.998840 40.000511,291.751221 40.000404,280.934479   C40.000118,251.768906 40.465034,222.592468 39.783150,193.442841   C39.489597,180.893845 46.705051,176.103485 57.502827,176.074890   C81.168404,176.012222 104.834259,176.055405 129.000000,176.055420  M258.500000,292.093781   C282.996948,292.092743 307.493927,292.107147 331.990845,292.079529   C337.885864,292.072876 340.895782,289.694733 342.179108,284.034271   C342.615387,282.109802 342.897888,280.104004 342.901062,278.134796   C342.946533,249.971710 342.950348,221.808487 342.921906,193.645340   C342.912201,184.046783 338.828186,180.045135 329.192719,180.044434   C275.366058,180.040512 221.539383,180.042542 167.712723,180.042542   C166.121292,180.042542 164.529861,180.042542 161.785980,180.042542   C167.146820,184.664047 167.045151,189.936142 167.029297,195.299927   C166.955429,220.296616 167.077744,245.294083 166.945938,270.290283   C166.907562,277.569550 168.660233,285.173950 163.104218,292.094025   C195.195099,292.094025 226.347549,292.094025 258.500000,292.093781  M80.790726,278.300262   C85.307602,275.485260 89.830627,272.680023 94.340294,269.853485   C112.672638,258.363190 131.019745,246.896255 149.317917,235.351776   C154.157059,232.298737 154.777710,229.778214 152.162170,225.521423   C149.729431,221.562134 145.689407,220.625549 141.411789,223.259598   C133.340652,228.229584 125.348396,233.327469 117.311676,238.353531   C100.808769,248.674240 84.279152,258.952393 67.803749,269.316742   C63.550991,271.992096 62.656429,275.780029 65.112411,279.450592   C67.651398,283.245209 71.393555,284.037628 75.525032,281.616425   C77.102806,280.691772 78.635010,279.689362 80.790726,278.300262  M96.133759,218.559174   C100.250740,212.477524 101.681618,205.807800 101.147118,198.334930   C91.587181,199.389771 82.672516,200.305435 73.784210,201.429535   C72.493973,201.592697 70.672020,202.461594 70.211235,203.499146   C66.400452,212.079941 62.852505,220.777451 59.236618,229.411865   C71.891640,235.546387 85.718498,231.564850 96.133759,218.559174  M61.366638,247.589508   C62.185997,254.500000 67.879250,249.064545 70.939392,252.613510   C71.657501,246.784485 72.212601,242.278641 72.801811,237.495880   C69.412170,237.090256 66.505608,236.742432 63.042984,236.328079   C62.517479,239.970383 62.027420,243.367004 61.366638,247.589508  M100.414131,241.972412   C101.906998,240.794342 103.399864,239.616272 105.028717,238.330887   C101.951485,234.390259 99.226875,230.901199 96.225914,227.058243   C93.588753,229.214615 91.129601,231.225418 88.564316,233.323013   C91.003349,236.532944 93.203522,239.214798 95.156021,242.066238   C96.701263,244.322891 98.144882,244.302185 100.414131,241.972412  M114.506851,213.931824   C122.818977,214.221085 116.911201,207.404327 120.368088,204.453506   C114.676003,203.840454 110.180649,203.356308 105.361465,202.837280   C104.929031,206.473846 104.574471,209.455582 104.207191,212.544220   C107.760429,213.045761 110.688492,213.459061 114.506851,213.931824  z"
     id="path8" /><path
     fill="#656565"
     opacity="1.000000"
     stroke="none"
     d=" M300.061218,433.716003   C291.002594,440.481903 281.943939,447.247772 272.446747,454.341248   C266.245483,446.025940 260.130981,437.826965 253.605347,429.076691   C361.256500,349.043182 468.796112,269.092560 576.892029,188.728394   C583.072266,197.007919 589.184448,205.196198 595.620972,213.819077   C587.074646,220.363815 578.676392,226.795151 569.758606,233.603180   C561.796631,239.519424 554.354187,245.058975 546.608643,250.677032   C545.829895,251.132690 545.354187,251.509872 544.570068,252.020935   C482.072968,298.402405 419.871185,344.632385 357.707794,390.913940   C346.659271,399.139709 335.770386,407.579895 324.475311,415.989929   C316.115631,421.944550 308.088409,427.830261 300.061218,433.716003  z"
     id="path9" /><path
     fill="#fefefe"
     opacity="1"
     stroke="none"
     d="m 546.77966,252.04423 c 0.0388,5.34044 0.0776,10.68087 0.16211,16.48659 -21.94519,16.96051 -43.89776,33.50696 -65.93664,49.93756 -25.77362,19.21503 -51.62702,38.32303 -77.43753,57.48862 -24.60892,18.27329 -49.20609,36.56235 -73.81272,54.83868 -1.33163,0.98914 -2.70294,1.92478 -4.36365,3.004 -0.34915,-5.56762 -0.39041,-11.25393 -0.50756,-17.40942 10.88672,-8.81036 21.7756,-17.25055 32.82412,-25.47632 62.1634,-46.28156 124.36518,-92.51154 187.17814,-138.85342 1.04742,-0.0683 1.47058,-0.0423 1.89373,-0.0163 z"
     id="path27"
     style="display:inline" /><path
     fill="#FFFFFF"
     opacity="1.000000"
     stroke="none"
     d=" M258.000000,292.093903   C226.347549,292.094025 195.195099,292.094025 163.104218,292.094025   C168.660233,285.173950 166.907562,277.569550 166.945938,270.290283   C167.077744,245.294083 166.955429,220.296616 167.029297,195.299927   C167.045151,189.936142 167.146820,184.664047 161.785980,180.042542   C164.529861,180.042542 166.121292,180.042542 167.712723,180.042542   C221.539383,180.042542 275.366058,180.040512 329.192719,180.044434   C338.828186,180.045135 342.912201,184.046783 342.921906,193.645340   C342.950348,221.808487 342.946533,249.971710 342.901062,278.134796   C342.897888,280.104004 342.615387,282.109802 342.179108,284.034271   C340.895782,289.694733 337.885864,292.072876 331.990845,292.079529   C307.493927,292.107147 282.996948,292.092743 258.000000,292.093903  z"
     id="path48" /><path
     fill="#666666"
     opacity="1.000000"
     stroke="none"
     d=" M80.489349,278.511322   C78.635010,279.689362 77.102806,280.691772 75.525032,281.616425   C71.393555,284.037628 67.651398,283.245209 65.112411,279.450592   C62.656429,275.780029 63.550991,271.992096 67.803749,269.316742   C84.279152,258.952393 100.808769,248.674240 117.311676,238.353531   C125.348396,233.327469 133.340652,228.229584 141.411789,223.259598   C145.689407,220.625549 149.729431,221.562134 152.162170,225.521423   C154.777710,229.778214 154.157059,232.298737 149.317917,235.351776   C131.019745,246.896255 112.672638,258.363190 94.340294,269.853485   C89.830627,272.680023 85.307602,275.485260 80.489349,278.511322  z"
     id="path49" /><path
     fill="#666666"
     opacity="1.000000"
     stroke="none"
     d=" M95.958481,218.876038   C85.718498,231.564850 71.891640,235.546387 59.236618,229.411865   C62.852505,220.777451 66.400452,212.079941 70.211235,203.499146   C70.672020,202.461594 72.493973,201.592697 73.784210,201.429535   C82.672516,200.305435 91.587181,199.389771 101.147118,198.334930   C101.681618,205.807800 100.250740,212.477524 95.958481,218.876038  z"
     id="path50" /><path
     fill="#696969"
     opacity="1.000000"
     stroke="none"
     d=" M61.452003,247.176575   C62.027420,243.367004 62.517479,239.970383 63.042984,236.328079   C66.505608,236.742432 69.412170,237.090256 72.801811,237.495880   C72.212601,242.278641 71.657501,246.784485 70.939392,252.613510   C67.879250,249.064545 62.185997,254.500000 61.452003,247.176575  z"
     id="path51" /><path
     fill="#696969"
     opacity="1.000000"
     stroke="none"
     d=" M100.140671,242.198074   C98.144882,244.302185 96.701263,244.322891 95.156021,242.066238   C93.203522,239.214798 91.003349,236.532944 88.564316,233.323013   C91.129601,231.225418 93.588753,229.214615 96.225914,227.058243   C99.226875,230.901199 101.951485,234.390259 105.028717,238.330887   C103.399864,239.616272 101.906998,240.794342 100.140671,242.198074  z"
     id="path52" /><path
     fill="#696969"
     opacity="1.000000"
     stroke="none"
     d=" M114.061707,213.902100   C110.688492,213.459061 107.760429,213.045761 104.207191,212.544220   C104.574471,209.455582 104.929031,206.473846 105.361465,202.837280   C110.180649,203.356308 114.676003,203.840454 120.368088,204.453506   C116.911201,207.404327 122.818977,214.221085 114.061707,213.902100  z"
     id="path53" /><path
     fill="#c9c9c9"
     opacity="1"
     stroke="none"
     d="m 546.85925,251.68707 c -0.50274,0.33115 -0.9259,0.30515 -1.66491,0.23957 0.15985,-0.41677 0.63555,-0.79395 1.4143,-1.24961 0.31214,0.16532 0.32117,0.40909 0.25061,1.01004 z"
     id="path54"
     style="display:inline" /><text
     xml:space="preserve"
     style="font-style:normal;font-weight:normal;font-size:64px;line-height:1.25;font-family:sans-serif;display:inline;fill:#000000;fill-opacity:1;stroke:none;stroke-width:3.22901"
     x="240.10669"
     y="205.16403"
     id="sensor.froeling_kollektortemperatur"
     transform="scale(0.77544994,1.2895739)"
     inkscape:label="sensor.froeling_kollektortemperatur"><tspan
       sodipodi:role="line"
       id="tspan98"
       x="240.10669"
       y="205.16403"
       style="font-size:64px;stroke-width:3.22901">99°C</tspan></text></g>


<g
   id="g81"
   inkscape:label="rl-temp"><path
     fill="#CCCCCC"
     opacity="1.000000"
     stroke="none"
     d=" M504.511322,874.983521   C494.119110,872.244812 491.000244,868.196594 491.000122,858.008301   C490.999786,828.843567 490.995239,799.678833 491.002625,770.514099   C491.005127,760.613525 496.758698,755.001648 506.890137,755.001282   C574.885620,754.998779 642.881714,755.132874 710.875854,754.829712   C719.255005,754.792358 727.166931,760.939697 727.085144,770.933777   C726.845154,800.263184 727.013184,829.595886 726.992249,858.927246   C726.984863,869.290833 721.293396,874.989136 710.941650,874.990906   C642.279480,875.002625 573.617371,874.995483 504.511322,874.983521  M555.944763,806.500000   C555.944763,822.325439 555.953308,838.150818 555.940308,853.976257   C555.935425,859.871155 556.809204,865.985168 550.886597,870.781372   C552.632446,870.908386 553.282837,870.996948 553.933289,870.997070   C606.573547,871.003174 659.213745,871.016663 711.854004,870.986023   C719.264099,870.981750 722.988831,867.054199 722.994995,859.380127   C723.018494,829.894958 723.014771,800.409729 722.998169,770.924561   C722.993530,762.702820 719.328308,758.978271 711.186523,758.975525   C659.545776,758.958435 607.905090,758.964172 556.264343,758.981201   C555.056702,758.981628 553.849182,759.203491 553.902832,759.198181   C554.623352,764.955933 555.694397,770.222900 555.856567,775.517761   C556.162354,785.503418 555.944702,795.505005 555.944763,806.500000  M519.608276,854.133606   C528.804138,857.314453 536.342407,854.744202 540.732605,847.335510   C544.710938,840.621826 542.064270,829.703735 535.310730,825.669373   C534.046021,824.913879 533.247620,822.413513 533.221802,820.703430   C533.040833,808.707764 533.193970,796.707458 533.079285,784.710205   C533.029785,779.535583 529.729492,776.885620 524.992371,777.951355   C520.885254,778.875427 520.138428,782.102234 520.126465,785.630798   C520.086792,797.295715 520.210327,808.962646 520.004517,820.624084   C519.972229,822.453308 519.068604,824.983154 517.694519,825.957825   C507.902649,832.903625 507.990021,848.234131 519.608276,854.133606  M506.166687,792.573975   C509.697052,792.573975 513.227417,792.573975 516.724365,792.573975   C516.724365,789.792236 516.724365,787.563721 516.724365,785.247681   C512.875610,785.247681 509.365997,785.247681 505.623199,785.247681   C505.623199,787.714111 505.623199,789.819275 506.166687,792.573975  M516.075012,806.744385   C516.468750,804.327271 516.862549,801.910156 517.283081,799.328613   C512.975952,799.328613 509.601807,799.328613 506.115112,799.328613   C506.115112,801.904358 506.115112,804.137207 506.115112,806.902405   C509.319183,806.902405 512.245667,806.902405 516.075012,806.744385  M514.324158,821.222229   C519.608093,820.298096 516.057678,816.699280 516.925964,814.125854   C513.041504,814.125854 509.665039,814.125854 506.174500,814.125854   C506.174500,816.574341 506.174500,818.640625 506.174500,821.231567   C508.798645,821.231567 511.089478,821.231567 514.324158,821.222229  z"
     id="path11" /><path
     fill="#373737"
     opacity="1"
     stroke="none"
     d="m 554.87952,902.49567 c -19.586,0.38067 -39.29236,0.31183 -59.46045,0.34649 -0.32749,-4.54516 -0.1749,-9.19348 -0.0643,-13.84277 0.10391,-4.36829 1.86908,-6.69153 6.67889,-6.64233 15.31549,0.1568 30.63446,0.14325 45.95032,0.005 4.48041,-0.0404 6.4483,1.97754 6.54761,6.21521 0.10522,4.48889 0.15405,8.97913 0.3479,13.91828 z"
     id="path16"
     style="display:inline" /><path
     fill="#FEFEFE"
     opacity="1.000000"
     stroke="none"
     d=" M612.824341,909.928955   C615.726807,908.635498 618.282104,907.487427 621.317627,906.123596   C621.317627,911.959351 621.317627,917.279785 621.317627,923.399414   C615.051514,920.538025 609.258606,917.892700 602.538147,914.823853   C606.393555,912.981445 609.435425,911.527832 612.824341,909.928955  z"
     id="path31" /><path
     fill="#FEFEFE"
     opacity="1.000000"
     stroke="none"
     d=" M313.036621,712.137817   C310.263641,712.137939 307.957977,712.137939 304.866821,712.137939   C307.839142,705.645508 310.557465,699.707947 313.470337,693.345398   C316.363342,699.581604 319.060028,705.394653 322.188171,712.137756   C318.884857,712.137756 316.194427,712.137756 313.036621,712.137817  z"
     id="path32" /><path
     fill="#FEFEFE"
     opacity="1.000000"
     stroke="none"
     d=" M1501.451172,920.540039   C1497.529785,918.670715 1493.945923,916.982605 1489.282471,914.785950   C1495.828003,911.764282 1501.494751,909.148254 1507.729736,906.269897   C1507.729736,912.261230 1507.729736,917.350220 1507.729736,923.210266   C1505.572388,922.306396 1503.680664,921.513855 1501.451172,920.540039  z"
     id="path33" /><path
     fill="#FFFFFF"
     opacity="1.000000"
     stroke="none"
     d=" M555.944702,806.000000   C555.944702,795.505005 556.162354,785.503418 555.856567,775.517761   C555.694397,770.222900 554.623352,764.955933 553.902832,759.198181   C553.849182,759.203491 555.056702,758.981628 556.264343,758.981201   C607.905090,758.964172 659.545776,758.958435 711.186523,758.975525   C719.328308,758.978271 722.993530,762.702820 722.998169,770.924561   C723.014771,800.409729 723.018494,829.894958 722.994995,859.380127   C722.988831,867.054199 719.264099,870.981750 711.854004,870.986023   C659.213745,871.016663 606.573547,871.003174 553.933289,870.997070   C553.282837,870.996948 552.632446,870.908386 550.886597,870.781372   C556.809204,865.985168 555.935425,859.871155 555.940308,853.976257   C555.953308,838.150818 555.944763,822.325439 555.944702,806.000000  z"
     id="path57" /><path
     fill="#666666"
     opacity="1.000000"
     stroke="none"
     d=" M519.256104,853.990662   C507.990021,848.234131 507.902649,832.903625 517.694519,825.957825   C519.068604,824.983154 519.972229,822.453308 520.004517,820.624084   C520.210327,808.962646 520.086792,797.295715 520.126465,785.630798   C520.138428,782.102234 520.885254,778.875427 524.992371,777.951355   C529.729492,776.885620 533.029785,779.535583 533.079285,784.710205   C533.193970,796.707458 533.040833,808.707764 533.221802,820.703430   C533.247620,822.413513 534.046021,824.913879 535.310730,825.669373   C542.064270,829.703735 544.710938,840.621826 540.732605,847.335510   C536.342407,854.744202 528.804138,857.314453 519.256104,853.990662  z"
     id="path58" /><path
     fill="#696969"
     opacity="1.000000"
     stroke="none"
     d=" M505.894958,792.249268   C505.623199,789.819275 505.623199,787.714111 505.623199,785.247681   C509.365997,785.247681 512.875610,785.247681 516.724365,785.247681   C516.724365,787.563721 516.724365,789.792236 516.724365,792.573975   C513.227417,792.573975 509.697052,792.573975 505.894958,792.249268  z"
     id="path59" /><path
     fill="#666666"
     opacity="1.000000"
     stroke="none"
     d=" M515.623535,806.823364   C512.245667,806.902405 509.319183,806.902405 506.115112,806.902405   C506.115112,804.137207 506.115112,801.904358 506.115112,799.328613   C509.601807,799.328613 512.975952,799.328613 517.283081,799.328613   C516.862549,801.910156 516.468750,804.327271 515.623535,806.823364  z"
     id="path60" /><path
     fill="#656565"
     opacity="1.000000"
     stroke="none"
     d=" M513.852234,821.226929   C511.089478,821.231567 508.798645,821.231567 506.174500,821.231567   C506.174500,818.640625 506.174500,816.574341 506.174500,814.125854   C509.665039,814.125854 513.041504,814.125854 516.925964,814.125854   C516.057678,816.699280 519.608093,820.298096 513.852234,821.226929  z"
     id="path61" /><text
     xml:space="preserve"
     style="font-style:normal;font-weight:normal;font-size:64px;line-height:1.25;font-family:sans-serif;display:inline;fill:#000000;fill-opacity:1;stroke:none;stroke-width:2.92862"
     x="742.84467"
     y="651.41406"
     id="sensor.froeling_kollektor_ruecklauftemperatur"
     transform="scale(0.77126138,1.2965773)"
     inkscape:label="sensor.froeling_kollektor_ruecklauftemperatur"><tspan
       sodipodi:role="line"
       id="tspan97"
       x="742.84467"
       y="651.41406"
       style="font-size:64px;stroke-width:2.92862">99°C</tspan></text></g>
<g
   id="g82"
   inkscape:label="vl-temp"><path
     fill="#6C6C6C"
     opacity="1.000000"
     stroke="none"
     d=" M690.179199,578.035889   C683.308411,577.982605 687.250977,573.380005 686.058228,570.423950   C690.093018,570.423950 693.646362,570.423950 697.591187,570.423950   C697.591187,572.714355 697.591187,575.076782 697.591187,578.036316   C695.186707,578.036316 692.911255,578.036316 690.179199,578.035889  z"
     id="path66" /><path
     fill="#373737"
     opacity="1.000000"
     stroke="none"
     d=" M734.809814,672.333008   C715.259766,672.744568 695.595642,672.723450 675.467590,672.733582   C675.116211,668.128723 675.224182,663.492554 675.342773,658.856628   C675.455322,654.458191 677.387451,652.295593 682.118408,652.346191   C697.381836,652.509521 712.649170,652.502808 727.912842,652.348450   C732.703796,652.299988 734.494690,654.572388 734.527954,658.969727   C734.560608,663.280090 734.638000,667.590149 734.809814,672.333008  z"
     id="path17" /><path
     fill="#FEFEFE"
     opacity="1.000000"
     stroke="none"
     d=" M1504.938232,682.989502   C1505.989624,683.505188 1506.713623,683.887939 1508.432129,684.796631   C1501.950317,687.804199 1496.158569,690.491577 1489.764282,693.458557   C1489.764282,687.468567 1489.764282,682.148193 1489.764282,676.174622   C1494.807861,678.444580 1499.709229,680.650574 1504.938232,682.989502  z"
     id="path28" /><path
     fill="#FEFEFE"
     opacity="1.000000"
     stroke="none"
     d=" M796.490967,690.422668   C794.245972,691.452454 792.334473,692.299011 789.950500,693.354797   C789.950500,687.434448 789.950500,682.175476 789.950500,676.137939   C795.985657,678.908936 801.759277,681.559814 808.547363,684.676514   C804.111511,686.781494 800.468018,688.510437 796.490967,690.422668  z"
     id="path29" /><path
     fill="#FEFEFE"
     opacity="1.000000"
     stroke="none"
     d=" M564.819702,460.919861   C562.668701,465.647064 560.665100,470.023743 558.477539,474.802246   C555.572571,468.563049 552.847351,462.709869 549.893921,456.366608   C555.687500,456.366608 561.005737,456.366608 566.651367,456.366608   C566.054932,457.854980 565.511047,459.212189 564.819702,460.919861  z"
     id="path30" /><path
     fill="#CCCCCC"
     opacity="1.000000"
     stroke="none"
     d=" M758.000000,646.000000   C733.842712,646.000000 710.185364,646.005249 686.528076,645.997437   C676.912598,645.994202 671.035767,640.185242 671.021362,630.465210   C670.977539,600.810364 670.977051,571.155273 671.021973,541.500427   C671.036194,532.088074 677.213318,526.016052 686.729919,526.013062   C754.869629,525.991638 823.009277,525.992737 891.148987,526.011658   C901.425293,526.014526 906.998596,531.732056 906.999329,542.103210   C907.001404,571.924744 907.005005,601.746277 906.997131,631.567810   C906.994690,640.861145 901.881104,645.983215 892.447021,645.988647   C847.798035,646.014038 803.148987,646.000000 758.000000,646.000000  M867.500000,642.039429   C875.494995,642.039246 883.489990,642.052856 891.484985,642.035156   C899.847900,642.016663 903.069519,638.890747 903.074463,630.697815   C903.092346,601.049805 903.090454,571.401855 903.076233,541.753845   C903.072266,533.466797 899.588013,530.009277 891.196411,530.007019   C839.562256,529.993103 787.928162,529.997803 736.294006,530.013428   C735.091553,530.013794 733.889099,530.214783 733.765564,530.225830   C734.557312,534.908752 735.877686,539.189575 735.908875,543.479797   C736.102173,570.128296 736.069641,596.779053 735.959473,623.428528   C735.933716,629.668579 737.603638,636.265503 732.153503,642.039490   C777.571777,642.039490 822.035889,642.039490 867.500000,642.039429  M699.612000,625.157715   C708.305237,628.414001 715.941833,626.432617 720.362427,619.773621   C724.474243,613.579712 724.501282,603.854614 718.699341,599.692261   C713.315613,595.829895 713.809448,591.335144 713.815247,586.296082   C713.826355,576.644165 713.900574,566.991272 713.785217,557.340698   C713.716309,551.573792 711.315308,548.811218 706.905334,548.893188   C702.789062,548.969727 700.750977,551.569580 700.390747,557.269165   C700.317444,558.429626 700.370239,559.598267 700.370117,560.763123   C700.369141,571.080688 700.481445,581.400574 700.267334,591.713684   C700.228271,593.595032 699.379333,596.056946 698.021240,597.217896   C688.057007,605.735535 688.312195,616.772034 699.612000,625.157715  M686.423645,592.009277   C690.079529,592.364685 693.735474,592.720093 697.713135,593.106750   C697.713135,589.834351 697.713135,587.427673 697.713135,584.812744   C693.829651,584.812744 690.151550,584.812744 686.233337,584.812744   C686.233337,587.200317 686.233337,589.177917 686.423645,592.009277  M686.239990,557.777039   C686.239990,559.705933 686.239990,561.634827 686.239990,563.631958   C690.470703,563.631958 694.033569,563.631958 697.705444,563.631958   C697.705444,561.033447 697.705444,558.782410 697.705444,555.612793   C693.719116,556.071228 690.077271,556.490051 686.239990,557.777039  M690.635803,578.036316   C692.911255,578.036316 695.186707,578.036316 697.591187,578.036316   C697.591187,575.076782 697.591187,572.714355 697.591187,570.423950   C693.646362,570.423950 690.093018,570.423950 686.058228,570.423950   C687.250977,573.380005 683.308411,577.982605 690.635803,578.036316  z"
     id="path12" /><path
     fill="#FFFFFF"
     opacity="1.000000"
     stroke="none"
     d=" M867.000000,642.039429   C822.035889,642.039490 777.571777,642.039490 732.153503,642.039490   C737.603638,636.265503 735.933716,629.668579 735.959473,623.428528   C736.069641,596.779053 736.102173,570.128296 735.908875,543.479797   C735.877686,539.189575 734.557312,534.908752 733.765564,530.225830   C733.889099,530.214783 735.091553,530.013794 736.294006,530.013428   C787.928162,529.997803 839.562256,529.993103 891.196411,530.007019   C899.588013,530.009277 903.072266,533.466797 903.076233,541.753845   C903.090454,571.401855 903.092346,601.049805 903.074463,630.697815   C903.069519,638.890747 899.847900,642.016663 891.484985,642.035156   C883.489990,642.052856 875.494995,642.039246 867.000000,642.039429  z"
     id="path62" /><path
     fill="#666666"
     opacity="1.000000"
     stroke="none"
     d=" M699.261963,625.007812   C688.312195,616.772034 688.057007,605.735535 698.021240,597.217896   C699.379333,596.056946 700.228271,593.595032 700.267334,591.713684   C700.481445,581.400574 700.369141,571.080688 700.370117,560.763123   C700.370239,559.598267 700.317444,558.429626 700.390747,557.269165   C700.750977,551.569580 702.789062,548.969727 706.905334,548.893188   C711.315308,548.811218 713.716309,551.573792 713.785217,557.340698   C713.900574,566.991272 713.826355,576.644165 713.815247,586.296082   C713.809448,591.335144 713.315613,595.829895 718.699341,599.692261   C724.501282,603.854614 724.474243,613.579712 720.362427,619.773621   C715.941833,626.432617 708.305237,628.414001 699.261963,625.007812  z"
     id="path63" /><path
     fill="#6C6C6C"
     opacity="1.000000"
     stroke="none"
     d=" M686.328491,591.582397   C686.233337,589.177917 686.233337,587.200317 686.233337,584.812744   C690.151550,584.812744 693.829651,584.812744 697.713135,584.812744   C697.713135,587.427673 697.713135,589.834351 697.713135,593.106750   C693.735474,592.720093 690.079529,592.364685 686.328491,591.582397  z"
     id="path64" /><path
     fill="#6C6C6C"
     opacity="1.000000"
     stroke="none"
     d=" M686.337769,557.342957   C690.077271,556.490051 693.719116,556.071228 697.705444,555.612793   C697.705444,558.782410 697.705444,561.033447 697.705444,563.631958   C694.033569,563.631958 690.470703,563.631958 686.239990,563.631958   C686.239990,561.634827 686.239990,559.705933 686.337769,557.342957  z"
     id="path65" /><text
     xml:space="preserve"
     style="font-style:normal;font-weight:normal;font-size:64px;line-height:1.25;font-family:sans-serif;display:inline;fill:#000000;fill-opacity:1;stroke:none;stroke-width:3.20662"
     x="1037.0292"
     y="450.33029"
     id="sensor.froeling_kollektor_vorlauftemperatur"
     transform="scale(0.7298848,1.3700792)"
     inkscape:label="sensor.froeling_kollektor_vorlauftemperatur"><tspan
       sodipodi:role="line"
       id="tspan83"
       x="1037.0292"
       y="450.33029"
       style="font-size:64px;stroke-width:3.20662">99°C</tspan></text></g>






















































<g
   id="g77"
   inkscape:label="aussentemperatur"><path
     fill="#CCCCCC"
     opacity="1.000000"
     stroke="none"
     d=" M988.119751,242.169220   C981.065002,235.934113 980.466736,228.540222 986.249146,223.096664   C991.348206,218.296387 999.265076,218.866852 1003.854248,224.365311   C1007.161987,228.328323 1007.227173,234.661804 1004.006592,239.133972   C1000.628601,243.824722 995.263794,244.933395 988.119751,242.169220  z"
     id="path68" /><path
     fill="#FFFFFF"
     opacity="1.000000"
     stroke="none"
     d=" M1234.992920,179.001709   C1239.157959,179.002762 1242.826660,178.925369 1246.490723,179.022614   C1252.515869,179.182495 1256.967651,183.448730 1256.981689,189.430634   C1257.053345,219.929962 1257.073364,250.429733 1256.972046,280.928894   C1256.950073,287.527863 1253.180664,291.032898 1246.596313,291.036346   C1191.597168,291.065308 1136.598022,291.055481 1081.598877,291.045471   C1080.616699,291.045288 1079.634521,290.898346 1077.869629,290.757355   C1083.827393,282.626373 1081.769287,273.640198 1081.839600,265.011658   C1082.031250,241.513611 1082.065552,218.011002 1081.778442,194.514893   C1081.716919,189.466766 1080.039307,184.438400 1079.032104,179.001709   C1130.039673,179.001709 1182.267212,179.001709 1234.992920,179.001709  z"
     id="path37" /><path
     fill="#666666"
     opacity="1.000000"
     stroke="none"
     d=" M1050.874146,228.699951   C1050.877930,221.413315 1050.901123,214.592102 1050.876831,207.771057   C1050.866455,204.876236 1051.797363,202.866272 1055.096924,202.881470   C1058.464600,202.896988 1059.208130,205.070267 1059.203613,207.884659   C1059.192139,215.204926 1059.038330,222.531448 1059.316895,229.841156   C1059.386597,231.671112 1060.463501,233.855865 1061.781006,235.174713   C1066.585083,239.983475 1067.039185,246.699066 1062.502075,251.111832   C1058.424316,255.077637 1051.496704,255.075119 1047.630737,251.106186   C1043.360596,246.722565 1043.975708,239.592621 1048.523438,235.080963   C1049.904297,233.711090 1050.123169,231.170044 1050.874146,228.699951  z"
     id="path40" /><path
     fill="#696969"
     opacity="1.000000"
     stroke="none"
     d=" M1007.997253,260.351715   C1012.156006,260.351501 1015.815918,260.391418 1019.474670,260.341461   C1026.106445,260.250916 1029.802734,256.863831 1030.240845,250.550430   C1030.749756,243.214813 1027.484497,238.738647 1020.835632,237.657852   C1020.044922,237.529312 1019.253479,237.404922 1018.273926,237.248520   C1018.273926,234.932739 1018.273926,232.846191 1018.273926,230.804794   C1029.725220,228.620728 1039.880981,240.428757 1037.561523,252.910568   C1035.783081,262.480835 1029.292236,267.822235 1019.409424,267.829071   C1008.763855,267.836426 998.118347,267.834534 987.472778,267.828827   C982.619507,267.826233 978.264954,266.671112 974.854248,261.999481   C976.392212,260.640656 977.937378,259.275513 978.544189,258.739319   C982.585754,259.391296 985.550049,260.184967 988.537720,260.286041   C994.851318,260.499634 1001.177124,260.351257 1007.997253,260.351715  z"
     id="path39" /><path
     fill="#CCCCCC"
     opacity="1.000000"
     stroke="none"
     d=" M1213.000000,175.018661   C1223.662720,175.018753 1233.825439,174.995850 1243.988037,175.024902   C1255.741211,175.058487 1260.997314,180.361465 1260.998779,192.137802   C1261.002441,221.292984 1261.007568,250.448151 1260.995728,279.603333   C1260.991821,289.183899 1255.093872,294.996460 1245.405273,294.996796   C1153.441528,295.000092 1061.477783,295.000366 969.513977,294.996399   C959.866699,294.996002 954.006653,289.153351 954.003723,279.525513   C953.994751,250.203735 953.994629,220.881943 954.003357,191.560165   C954.006714,180.379318 959.508423,175.030121 971.095276,175.025925   C1018.243347,175.008850 1065.391479,175.018692 1112.539551,175.018631   C1145.859741,175.018600 1179.179810,175.018631 1213.000000,175.018661  M980.645264,245.629868   C982.943726,246.916641 985.147278,248.427460 987.558167,249.448792   C995.288086,252.723572 1004.359497,249.912033 1009.745972,242.757156   C1015.012695,235.761337 1014.283508,226.447815 1008.754883,218.370987   C1011.592712,216.966827 1014.430481,215.562683 1018.232239,213.681595   C1015.876160,211.273453 1014.665405,210.035950 1013.232117,208.571014   C1010.234985,211.707123 1006.288513,213.354996 1006.899048,217.658310   C998.829468,211.067795 990.500793,211.690826 982.619324,216.752045   C980.225464,214.085678 978.094971,211.712738 975.450439,208.767181   C973.861755,210.358231 972.727417,211.494202 971.068665,213.155411   C974.198486,215.764160 976.692871,217.843277 979.417480,220.114334   C973.965271,227.711411 974.068176,235.999191 980.087219,244.232193   C980.367554,244.615585 980.048828,245.436951 979.341736,245.771133   C974.485657,243.774277 974.219421,248.652466 971.366516,250.596085   C972.796326,252.166046 973.882446,253.358688 975.341431,254.960678   C977.396667,251.574829 982.864563,251.105835 980.645264,245.629868  M1234.494629,179.001709   C1182.267212,179.001709 1130.039673,179.001709 1079.032104,179.001709   C1080.039307,184.438400 1081.716919,189.466766 1081.778442,194.514893   C1082.065552,218.011002 1082.031250,241.513611 1081.839600,265.011658   C1081.769287,273.640198 1083.827393,282.626373 1077.869629,290.757355   C1079.634521,290.898346 1080.616699,291.045288 1081.598877,291.045471   C1136.598022,291.055481 1191.597168,291.065308 1246.596313,291.036346   C1253.180664,291.032898 1256.950073,287.527863 1256.972046,280.928894   C1257.073364,250.429733 1257.053345,219.929962 1256.981689,189.430634   C1256.967651,183.448730 1252.515869,179.182495 1246.490723,179.022614   C1242.826660,178.925369 1239.157959,179.002762 1234.494629,179.001709  M1007.497925,260.351349   C1001.177124,260.351257 994.851318,260.499634 988.537720,260.286041   C985.550049,260.184967 982.585754,259.391296 978.544189,258.739319   C977.937378,259.275513 976.392212,260.640656 974.854248,261.999481   C978.264954,266.671112 982.619507,267.826233 987.472778,267.828827   C998.118347,267.834534 1008.763855,267.836426 1019.409424,267.829071   C1029.292236,267.822235 1035.783081,262.480835 1037.561523,252.910568   C1039.880981,240.428757 1029.725220,228.620728 1018.273926,230.804794   C1018.273926,232.846191 1018.273926,234.932739 1018.273926,237.248520   C1019.253479,237.404922 1020.044922,237.529312 1020.835632,237.657852   C1027.484497,238.738647 1030.749756,243.214813 1030.240845,250.550430   C1029.802734,256.863831 1026.106445,260.250916 1019.474670,260.341461   C1015.815918,260.391418 1012.156006,260.351501 1007.497925,260.351349  M1050.874268,229.165436   C1050.123169,231.170044 1049.904297,233.711090 1048.523438,235.080963   C1043.975708,239.592621 1043.360596,246.722565 1047.630737,251.106186   C1051.496704,255.075119 1058.424316,255.077637 1062.502075,251.111832   C1067.039185,246.699066 1066.585083,239.983475 1061.781006,235.174713   C1060.463501,233.855865 1059.386597,231.671112 1059.316895,229.841156   C1059.038330,222.531448 1059.192139,215.204926 1059.203613,207.884659   C1059.208130,205.070267 1058.464600,202.896988 1055.096924,202.881470   C1051.797363,202.866272 1050.866455,204.876236 1050.876831,207.771057   C1050.901123,214.592102 1050.877930,221.413315 1050.874268,229.165436  M972.032227,228.408066   C969.789917,228.408066 967.547546,228.408066 965.218262,228.408066   C965.218262,230.815353 965.218262,232.545715 965.218262,234.460098   C968.187744,234.460098 970.860657,234.460098 974.208618,234.460098   C973.678040,232.164764 973.262085,230.365128 972.032227,228.408066  M997.118835,206.525757   C997.685364,201.614044 995.005066,201.579666 991.379395,202.577240   C991.379395,205.350723 991.379395,207.910110 991.379395,210.716324   C994.283386,210.904999 997.464783,212.348938 997.118835,206.525757  M1041.124512,229.377182   C1042.735596,234.200119 1046.111084,230.789459 1049.147095,231.520477   C1048.989990,229.453430 1048.874756,227.935440 1048.717896,225.870850   C1045.895996,227.241074 1042.283325,223.662567 1041.124512,229.377182  M1048.841064,217.724518   C1046.411377,217.435974 1043.981689,217.147430 1041.036255,216.797623   C1041.266113,219.086578 1041.402344,220.442154 1041.529907,221.713303   C1048.408569,222.296204 1048.408569,222.296204 1048.841064,217.724518  M1042.881104,212.885880   C1049.049438,213.036972 1049.191162,212.916489 1048.275269,208.246246   C1046.002319,208.246246 1043.727539,208.246246 1040.707886,208.246246   C1041.273560,209.951599 1041.698853,211.234222 1042.881104,212.885880  z"
     id="path7" /><path
     fill="#696969"
     opacity="1.000000"
     stroke="none"
     d=" M1007.842102,218.441040   C1014.283508,226.447815 1015.012695,235.761337 1009.745972,242.757156   C1004.359497,249.912033 995.288086,252.723572 987.558167,249.448792   C985.147278,248.427460 982.943726,246.916641 980.311523,245.826324   C979.977722,246.022781 980.009094,246.054337 980.009094,246.054337   C980.048828,245.436951 980.367554,244.615585 980.087219,244.232193   C974.068176,235.999191 973.965271,227.711411 979.417480,220.114334   C976.692871,217.843277 974.198486,215.764160 971.068665,213.155411   C972.727417,211.494202 973.861755,210.358231 975.450439,208.767181   C978.094971,211.712738 980.225464,214.085678 982.619324,216.752045   C990.500793,211.690826 998.829468,211.067795 1007.270569,217.925720   C1007.642090,218.193146 1007.842102,218.441040 1007.842102,218.441040  M988.461487,242.346390   C995.263794,244.933395 1000.628601,243.824722 1004.006592,239.133972   C1007.227173,234.661804 1007.161987,228.328323 1003.854248,224.365311   C999.265076,218.866852 991.348206,218.296387 986.249146,223.096664   C980.466736,228.540222 981.065002,235.934113 988.461487,242.346390  z"
     id="path38" /><path
     fill="#6C6C6C"
     opacity="1.000000"
     stroke="none"
     d=" M972.439148,228.486786   C973.262085,230.365128 973.678040,232.164764 974.208618,234.460098   C970.860657,234.460098 968.187744,234.460098 965.218262,234.460098   C965.218262,232.545715 965.218262,230.815353 965.218262,228.408066   C967.547546,228.408066 969.789917,228.408066 972.439148,228.486786  z"
     id="path41" /><path
     fill="#6C6C6C"
     opacity="1.000000"
     stroke="none"
     d=" M1008.298462,218.406006   C1007.842102,218.441040 1007.642090,218.193146 1007.608398,218.182983   C1006.288513,213.354996 1010.234985,211.707123 1013.232117,208.571014   C1014.665405,210.035950 1015.876160,211.273453 1018.232239,213.681595   C1014.430481,215.562683 1011.592712,216.966827 1008.298462,218.406006  z"
     id="path42" /><path
     fill="#6C6C6C"
     opacity="1.000000"
     stroke="none"
     d=" M979.962036,246.007080   C982.864563,251.105835 977.396667,251.574829 975.341431,254.960678   C973.882446,253.358688 972.796326,252.166046 971.366516,250.596085   C974.219421,248.652466 974.485657,243.774277 979.675415,245.912735   C980.009094,246.054337 979.977722,246.022781 979.962036,246.007080  z"
     id="path43" /><path
     fill="#6C6C6C"
     opacity="1.000000"
     stroke="none"
     d=" M997.118286,206.980347   C997.464783,212.348938 994.283386,210.904999 991.379395,210.716324   C991.379395,207.910110 991.379395,205.350723 991.379395,202.577240   C995.005066,201.579666 997.685364,201.614044 997.118286,206.980347  z"
     id="path44" /><path
     fill="#6C6C6C"
     opacity="1.000000"
     stroke="none"
     d=" M1041.124634,228.952209   C1042.283325,223.662567 1045.895996,227.241074 1048.717896,225.870850   C1048.874756,227.935440 1048.989990,229.453430 1049.147095,231.520477   C1046.111084,230.789459 1042.735596,234.200119 1041.124634,228.952209  z"
     id="path45" /><path
     fill="#696969"
     opacity="1.000000"
     stroke="none"
     d=" M1048.941650,218.160797   C1048.408569,222.296204 1048.408569,222.296204 1041.529907,221.713303   C1041.402344,220.442154 1041.266113,219.086578 1041.036255,216.797623   C1043.981689,217.147430 1046.411377,217.435974 1048.941650,218.160797  z"
     id="path46" /><path
     fill="#656565"
     opacity="1.000000"
     stroke="none"
     d=" M1042.502686,212.701355   C1041.698853,211.234222 1041.273560,209.951599 1040.707886,208.246246   C1043.727539,208.246246 1046.002319,208.246246 1048.275269,208.246246   C1049.191162,212.916489 1049.049438,213.036972 1042.502686,212.701355  z"
     id="path47" /><text
     xml:space="preserve"
     style="font-style:normal;font-weight:normal;font-size:64px;line-height:1.25;font-family:sans-serif;fill:#000000;fill-opacity:1;stroke:none;stroke-width:2.92124"
     x="1304.8868"
     y="219.98898"
     id="sensor.froeling_aussentemperatur"
     transform="scale(0.84035844,1.1899684)"
     inkscape:label="sensor.froeling_aussentemperatur"><tspan
       sodipodi:role="line"
       id="tspan96"
       x="1304.8868"
       y="219.98898"
       style="font-size:64px;stroke-width:2.92124">99°C</tspan></text></g>
<g
   id="g76"
   inkscape:label="drehzahl"><path
     fill="#666666"
     opacity="1.000000"
     stroke="none"
     d=" M1046.701904,1031.991455   C1047.474243,1032.161987 1048.397339,1032.727417 1048.359863,1032.800171   C1043.497925,1042.280273 1038.753052,1051.832764 1033.429810,1061.050903   C1032.651001,1062.399414 1028.572388,1063.214233 1026.945923,1062.408447   C1023.813904,1060.856689 1020.769104,1058.381836 1018.729675,1055.541870   C1015.414490,1050.925659 1016.597107,1047.829346 1021.649231,1045.173218   C1029.901001,1040.834595 1038.152466,1036.495239 1046.701904,1031.991455  z"
     id="path36" /><path
     fill="#6C6C6C"
     opacity="1.000000"
     stroke="none"
     d=" M1004.476685,1005.408203   C1037.366943,989.431885 1073.753784,1007.112549 1081.368042,1042.491089   C1082.028198,1045.557983 1082.232300,1048.744751 1082.371704,1051.888184   C1082.412354,1052.806152 1081.546021,1054.547729 1081.010498,1054.582031   C1077.204346,1054.825195 1073.372681,1054.801270 1069.559814,1054.626831   C1069.112549,1054.606201 1068.208740,1052.916016 1068.434937,1052.412842   C1068.821777,1051.552368 1069.873901,1050.558716 1070.756836,1050.439575   C1072.865723,1050.155273 1075.038940,1050.348022 1077.828735,1050.348022   C1077.486450,1038.382446 1073.408936,1028.506104 1065.651367,1019.863464   C1062.971313,1021.630615 1060.504272,1023.319031 1057.934326,1024.832520   C1057.732910,1024.951172 1056.812866,1023.849365 1055.171753,1022.352295   C1057.905762,1020.743042 1060.364014,1019.296021 1063.325195,1017.552979   C1053.380005,1008.327698 1043.412598,1004.108459 1031.031494,1003.899414   C1031.031494,1006.214355 1031.251465,1008.200134 1030.951050,1010.103760   C1030.762451,1011.297852 1029.791626,1012.368347 1029.171753,1013.494324   C1028.452881,1012.302673 1027.370605,1011.186401 1027.104004,1009.900940   C1026.745117,1008.170776 1027.015015,1006.310242 1027.015015,1003.955261   C1014.762512,1004.169800 1004.774292,1008.393311 996.197693,1016.349304   C1002.058655,1023.620789 1002.058655,1023.620789 999.757202,1025.949829   C997.601013,1023.975647 995.432739,1021.990479 993.288757,1020.027527   C986.242981,1025.766724 981.876221,1035.725464 980.228149,1050.306763   C982.521790,1050.306763 984.766663,1050.059448 986.913696,1050.410522   C987.996399,1050.587402 988.901855,1051.848755 989.887451,1052.619751   C989.017700,1053.363770 988.187988,1054.686035 987.270996,1054.749634   C983.675781,1054.999146 980.052979,1054.851685 976.553589,1054.851685   C973.746887,1036.699097 984.906555,1017.105286 1004.476685,1005.408203  z"
     id="path35" /><path
     fill="#C8C8C8"
     opacity="1.000000"
     stroke="none"
     d=" M967.000000,1010.000000   C967.000000,1003.670166 966.984924,997.840271 967.003357,992.010498   C967.035339,981.908813 972.505981,976.335999 982.657593,976.046326   C983.656189,976.017822 984.656250,976.041931 985.655640,976.041931   C1075.601685,976.041931 1165.547852,976.109985 1255.493652,975.962402   C1267.804565,975.942200 1274.390381,981.890076 1274.159790,994.710510   C1273.647339,1023.184204 1274.004272,1051.673462 1273.997925,1080.156372   C1273.995483,1090.966919 1268.967896,1095.998413 1258.175781,1095.998657   C1166.397461,1096.000977 1074.619263,1096.000854 982.841003,1095.998657   C972.545654,1095.998413 967.002319,1090.381714 967.000916,1079.958374   C966.997742,1056.805542 967.000000,1033.652832 967.000000,1010.000000  M1092.026978,982.689697   C1092.981445,986.490662 1094.722290,990.283264 1094.762329,994.093872   C1095.015381,1018.090027 1095.009521,1042.091064 1094.827271,1066.088501   C1094.761719,1074.721069 1096.670654,1083.659668 1091.072754,1092.080688   C1093.238892,1092.080688 1094.559448,1092.080566 1095.880005,1092.080566   C1150.044067,1092.080078 1204.208008,1092.085449 1258.372070,1092.073242   C1266.891357,1092.071289 1270.016113,1088.880737 1270.018921,1080.245117   C1270.028442,1051.413208 1270.024780,1022.581238 1270.021240,993.749329   C1270.019897,983.464478 1266.567749,980.030518 1256.209473,980.029724   C1202.712036,980.025574 1149.214722,980.027710 1095.717285,980.028625   C1094.384155,980.028625 1093.042725,979.975708 1091.729370,980.139282   C1091.583496,980.157471 1091.595459,981.441956 1092.026978,982.689697  M1004.154358,1005.594604   C984.906555,1017.105286 973.746887,1036.699097 976.553589,1054.851685   C980.052979,1054.851685 983.675781,1054.999146 987.270996,1054.749634   C988.187988,1054.686035 989.017700,1053.363770 989.887451,1052.619751   C988.901855,1051.848755 987.996399,1050.587402 986.913696,1050.410522   C984.766663,1050.059448 982.521790,1050.306763 980.228149,1050.306763   C981.876221,1035.725464 986.242981,1025.766724 993.288757,1020.027527   C995.432739,1021.990479 997.601013,1023.975647 999.757202,1025.949829   C1002.058655,1023.620789 1002.058655,1023.620789 996.197693,1016.349304   C1004.774292,1008.393311 1014.762512,1004.169800 1027.015015,1003.955261   C1027.015015,1006.310242 1026.745117,1008.170776 1027.104004,1009.900940   C1027.370605,1011.186401 1028.452881,1012.302673 1029.171753,1013.494324   C1029.791626,1012.368347 1030.762451,1011.297852 1030.951050,1010.103760   C1031.251465,1008.200134 1031.031494,1006.214355 1031.031494,1003.899414   C1043.412598,1004.108459 1053.380005,1008.327698 1063.325195,1017.552979   C1060.364014,1019.296021 1057.905762,1020.743042 1055.171753,1022.352295   C1056.812866,1023.849365 1057.732910,1024.951172 1057.934326,1024.832520   C1060.504272,1023.319031 1062.971313,1021.630615 1065.651367,1019.863464   C1073.408936,1028.506104 1077.486450,1038.382446 1077.828735,1050.348022   C1075.038940,1050.348022 1072.865723,1050.155273 1070.756836,1050.439575   C1069.873901,1050.558716 1068.821777,1051.552368 1068.434937,1052.412842   C1068.208740,1052.916016 1069.112549,1054.606201 1069.559814,1054.626831   C1073.372681,1054.801270 1077.204346,1054.825195 1081.010498,1054.582031   C1081.546021,1054.547729 1082.412354,1052.806152 1082.371704,1051.888184   C1082.232300,1048.744751 1082.028198,1045.557983 1081.368042,1042.491089   C1073.753784,1007.112549 1037.366943,989.431885 1004.154358,1005.594604  M1046.404053,1032.156250   C1038.152466,1036.495239 1029.901001,1040.834595 1021.649231,1045.173218   C1016.597107,1047.829346 1015.414490,1050.925659 1018.729675,1055.541870   C1020.769104,1058.381836 1023.813904,1060.856689 1026.945923,1062.408447   C1028.572388,1063.214233 1032.651001,1062.399414 1033.429810,1061.050903   C1038.753052,1051.832764 1043.497925,1042.280273 1048.359863,1032.800171   C1048.397339,1032.727417 1047.474243,1032.161987 1046.404053,1032.156250  z"
     id="path6" /><path
     fill="#FFFFFF"
     opacity="1.000000"
     stroke="none"
     d=" M1091.780518,982.414429   C1091.595459,981.441956 1091.583496,980.157471 1091.729370,980.139282   C1093.042725,979.975708 1094.384155,980.028625 1095.717285,980.028625   C1149.214722,980.027710 1202.712036,980.025574 1256.209473,980.029724   C1266.567749,980.030518 1270.019897,983.464478 1270.021240,993.749329   C1270.024780,1022.581238 1270.028442,1051.413208 1270.018921,1080.245117   C1270.016113,1088.880737 1266.891357,1092.071289 1258.372070,1092.073242   C1204.208008,1092.085449 1150.044067,1092.080078 1095.880005,1092.080566   C1094.559448,1092.080566 1093.238892,1092.080688 1091.072754,1092.080688   C1096.670654,1083.659668 1094.761719,1074.721069 1094.827271,1066.088501   C1095.009521,1042.091064 1095.015381,1018.090027 1094.762329,994.093872   C1094.722290,990.283264 1092.981445,986.490662 1091.780518,982.414429  z"
     id="path34" /><text
     xml:space="preserve"
     style="font-style:normal;font-weight:normal;font-size:64px;line-height:1.25;font-family:sans-serif;display:inline;fill:#000000;fill-opacity:1;stroke:none;stroke-width:3.1933"
     x="1459.6287"
     y="808.91907"
     id="sensor.froeling_ansteuerung_kollektorpumpe_"
     transform="scale(0.75852609,1.3183462)"
     inkscape:label="sensor.froeling_ansteuerung_kollektorpumpe "><tspan
       sodipodi:role="line"
       id="tspan99"
       x="1459.6287"
       y="808.91907"
       style="font-size:64px;stroke-width:3.1933">100%</tspan></text></g>
<g
   id="g75"
   inkscape:label="laufzeit"><path
     fill="#C4C4C4"
     opacity="1.000000"
     stroke="none"
     d=" M1394.461182,1072.653076   C1377.764648,1062.241455 1372.999390,1042.208496 1382.950684,1025.439941   C1392.072510,1010.069153 1413.010742,1005.316040 1429.432983,1014.888062   C1444.217651,1023.505554 1449.636841,1044.175659 1441.128418,1059.494751   C1431.693115,1076.482422 1412.213135,1082.089600 1394.461182,1072.653076  M1438.351196,1048.592407   C1438.128662,1044.506348 1438.566650,1040.249756 1437.564575,1036.364868   C1434.007080,1022.575500 1418.209473,1013.914062 1404.634766,1017.896729   C1389.508911,1022.334412 1381.167847,1037.250366 1385.706421,1051.745239   C1389.640503,1064.310181 1400.020630,1071.666016 1413.136719,1071.183838   C1425.387451,1070.733398 1435.270508,1062.168213 1438.351196,1048.592407  z"
     id="path69" /><path
     fill="#696969"
     opacity="1.000000"
     stroke="none"
     d=" M1398.146729,1005.002197   C1400.442017,1004.388611 1402.487061,1004.174500 1404.256592,1003.360962   C1405.329346,1002.867737 1406.346802,1001.543823 1406.645020,1000.399231   C1406.778320,999.887451 1405.149414,998.339111 1404.206543,998.228210   C1400.813477,997.828918 1398.780640,996.202698 1399.107056,992.780640   C1399.457397,989.107300 1402.167969,987.956482 1405.543579,987.976746   C1408.874146,987.996765 1412.206909,988.053894 1415.534912,987.960327   C1419.248779,987.855896 1423.147461,988.118774 1423.583862,992.626831   C1424.019043,997.124390 1420.403198,998.289978 1416.665405,998.280518   C1415.048828,1001.644653 1416.296387,1003.184204 1419.400146,1003.732666   C1436.877197,1006.820923 1450.730713,1021.893372 1451.678101,1041.156860   C1452.999634,1068.027954 1428.716797,1089.587280 1402.042236,1082.903320   C1375.086060,1076.148682 1362.760620,1048.166138 1375.593262,1024.164429   C1380.466187,1015.050171 1387.940674,1008.636169 1398.146729,1005.002197  M1394.784302,1072.834839   C1412.213135,1082.089600 1431.693115,1076.482422 1441.128418,1059.494751   C1449.636841,1044.175659 1444.217651,1023.505554 1429.432983,1014.888062   C1413.010742,1005.316040 1392.072510,1010.069153 1382.950684,1025.439941   C1372.999390,1042.208496 1377.764648,1062.241455 1394.784302,1072.834839  z"
     id="path56" /><path
     fill="#FFFFFF"
     opacity="1.000000"
     stroke="none"
     d=" M1524.000000,980.029175   C1575.648193,980.029175 1626.796265,980.027588 1677.944458,980.030518   C1688.604126,980.031128 1691.989624,983.419006 1691.991211,994.084656   C1691.995483,1022.574341 1691.998779,1051.064087 1691.990112,1079.553711   C1691.987183,1088.978638 1688.873535,1092.074219 1679.402710,1092.074951   C1611.427246,1092.080078 1543.451904,1092.078125 1475.476440,1092.078369   C1473.988403,1092.078369 1472.500366,1092.078369 1472.115723,1092.078369   C1472.767212,1086.865601 1473.909790,1081.821777 1473.943481,1076.770508   C1474.124146,1049.614868 1474.129150,1022.456665 1473.937378,995.301208   C1473.902466,990.356934 1472.674561,985.421143 1471.935425,980.029175   C1488.369751,980.029175 1505.934937,980.029175 1524.000000,980.029175  z"
     id="path55" /><path
     fill="#C9C9C9"
     opacity="1.000000"
     stroke="none"
     d=" M1463.000000,976.040161   C1534.985107,976.040222 1606.470093,976.038452 1677.955200,976.041687   C1690.281494,976.042297 1695.974609,981.703613 1695.976929,993.958862   C1695.982300,1022.452942 1695.985962,1050.947021 1695.975098,1079.441040   C1695.970825,1090.739014 1690.775757,1095.999512 1679.674438,1095.999634   C1573.863159,1096.000488 1468.051636,1095.882446 1362.241211,1096.178711   C1351.451050,1096.208862 1345.849609,1087.939453 1345.923706,1079.765259   C1346.185059,1050.940430 1346.013794,1022.111633 1346.030884,993.284302   C1346.037842,981.559753 1351.637329,976.048218 1363.520630,976.044128   C1396.513794,976.032898 1429.506836,976.040222 1463.000000,976.040161  M1523.500000,980.029175   C1505.934937,980.029175 1488.369751,980.029175 1471.935425,980.029175   C1472.674561,985.421143 1473.902466,990.356934 1473.937378,995.301208   C1474.129150,1022.456665 1474.124146,1049.614868 1473.943481,1076.770508   C1473.909790,1081.821777 1472.767212,1086.865601 1472.115723,1092.078369   C1472.500366,1092.078369 1473.988403,1092.078369 1475.476440,1092.078369   C1543.451904,1092.078125 1611.427246,1092.080078 1679.402710,1092.074951   C1688.873535,1092.074219 1691.987183,1088.978638 1691.990112,1079.553711   C1691.998779,1051.064087 1691.995483,1022.574341 1691.991211,994.084656   C1691.989624,983.419006 1688.604126,980.031128 1677.944458,980.030518   C1626.796265,980.027588 1575.648193,980.029175 1523.500000,980.029175  M1397.780273,1005.149109   C1387.940674,1008.636169 1380.466187,1015.050171 1375.593262,1024.164429   C1362.760620,1048.166138 1375.086060,1076.148682 1402.042236,1082.903320   C1428.716797,1089.587280 1452.999634,1068.027954 1451.678101,1041.156860   C1450.730713,1021.893372 1436.877197,1006.820923 1419.400146,1003.732666   C1416.296387,1003.184204 1415.048828,1001.644653 1416.665405,998.280518   C1420.403198,998.289978 1424.019043,997.124390 1423.583862,992.626831   C1423.147461,988.118774 1419.248779,987.855896 1415.534912,987.960327   C1412.206909,988.053894 1408.874146,987.996765 1405.543579,987.976746   C1402.167969,987.956482 1399.457397,989.107300 1399.107056,992.780640   C1398.780640,996.202698 1400.813477,997.828918 1404.206543,998.228210   C1405.149414,998.339111 1406.778320,999.887451 1406.645020,1000.399231   C1406.346802,1001.543823 1405.329346,1002.867737 1404.256592,1003.360962   C1402.487061,1004.174500 1400.442017,1004.388611 1397.780273,1005.149109  z"
     id="path10" /><path
     fill="#656565"
     opacity="1.000000"
     stroke="none"
     d=" M1438.297607,1049.008545   C1435.270508,1062.168213 1425.387451,1070.733398 1413.136719,1071.183838   C1400.020630,1071.666016 1389.640503,1064.310181 1385.706421,1051.745239   C1381.167847,1037.250366 1389.508911,1022.334412 1404.634766,1017.896729   C1418.209473,1013.914062 1434.007080,1022.575500 1437.564575,1036.364868   C1438.566650,1040.249756 1438.128662,1044.506348 1438.297607,1049.008545  M1408.875732,1022.709351   C1408.875732,1030.604126 1408.875732,1038.498901 1408.875732,1046.438232   C1411.192505,1046.438232 1412.864990,1046.438232 1414.509033,1046.438232   C1414.509033,1037.113892 1414.509033,1028.241699 1414.509033,1019.115784   C1412.009766,1019.272278 1409.008301,1017.319824 1408.875732,1022.709351  z"
     id="path71" /><path
     fill="#c4c4c4"
     opacity="1"
     stroke="none"
     d="m 1408.8787,1022.235 c 0.1296,-4.9152 3.1311,-2.9627 5.6303,-3.1192 0,9.1259 0,17.9981 0,27.3224 -1.644,0 -3.3165,0 -5.6333,0 0,-7.9393 0,-15.8341 0,-24.2032 z"
     id="path72"
     style="display:inline" /><text
     xml:space="preserve"
     style="font-style:normal;font-weight:normal;font-size:64px;line-height:1.25;font-family:sans-serif;display:inline;fill:#000000;fill-opacity:1;stroke:none;stroke-width:3.61767"
     x="1736.1211"
     y="915.51581"
     id="sensor.froeling_laufzeit_kollektorpumpe"
     transform="scale(0.85933022,1.163697)"
     inkscape:label="sensor.froeling_laufzeit_kollektorpumpe"><tspan
       sodipodi:role="line"
       id="tspan100"
       x="1736.1211"
       y="915.51581"
       style="font-size:64px;stroke-width:3.61767">9999h</tspan></text></g>
<g
   id="g74"
   inkscape:label="binary_sensor.froeling_kollektorpumpe_an_aus"><path
     id="path70"
     d="m 1055.793,859 c -14.6502,0.15619 -29.3032,0.0626 -43.9551,0.0625 -12.81372,-6e-5 -12.74519,-5.4e-4 -12.86524,12.9082 -0.0282,3.03864 -0.56617,6.09418 -1.10547,9.09961 -0.42224,2.35315 -1.20758,4.64216 -1.83203,6.95899 0,0 -0.0322,-0.0283 0.23632,-0.21875 11.26282,-15.3001 32.49832,-21.09607 50.02932,-14.29493 7.5355,2.92346 12.9064,8.38478 18.6933,13.48829 0,0 0,-0.003 0.051,-0.39453 -0.1269,-1.36438 0.047,-2.83747 -0.5254,-3.23243 -4.3955,-3.0346 -3.4887,-7.52344 -3.5117,-11.77539 -0.014,-2.49743 -0.1892,-5.01184 0.039,-7.48828 0.3719,-4.03582 -1.4368,-5.15393 -5.2539,-5.11328 z m -23.8848,15.81445 c -0.4935,-0.01 -0.987,-0.008 -1.4785,0.008 -25.7087,0.82287 -43.49409,25.11495 -36.65431,49.74804 3.50103,12.60912 11.73331,20.78016 23.74221,26.11524 12.6637,4.51263 24.141,2.661 34.834,-4.58008 13.8352,-9.36895 19.5872,-27.10042 15.0703,-43.42969 -4.1537,-15.01567 -20.2142,-27.55026 -35.5137,-27.86133 z m -1.2051,10.11914 c 4.429,0.0525 8.9582,1.16498 13.3106,3.41407 0.5557,0.29824 1.0933,0.61419 1.6211,0.93945 -0.426,-0.25583 -0.8588,-0.50476 -1.3028,-0.74219 -12.0192,-6.24005 -25.0986,-4.04608 -33.9961,4.92383 5.5982,-5.65095 12.8375,-8.62434 20.3672,-8.53516 z m 34.2989,2.06446 c 0,0.002 -0.01,0.006 0.016,0.2539 0.1498,0.53418 0.2777,0.81916 0.4043,1.10547 0.1167,-0.10925 0.3479,-0.29162 0.332,-0.3164 -0.2301,-0.36127 -0.494,-0.70026 -0.7519,-1.04297 z m -69.01177,0.98633 c -0.1026,0.0163 -0.19226,0.0488 -0.11914,0.0625 0.16309,-0.0188 0.13184,-0.0463 0.11914,-0.0625 z m -31.93945,4.02539 c -1.80705,0.0733 -3.0738,0.92588 -3.06445,4.16406 0.036,12.49486 0.0772,24.99049 -0.0391,37.48437 -0.0263,2.82629 1.41705,4.43531 3.73046,3.99219 1.60663,-0.30768 3.49024,-2.185 4.11719,-3.80078 0.71277,-1.83667 0.16406,-4.16321 0.16406,-6.93164 h 19.94141 c 0,-8.22253 -1.8e-4,-15.78535 -0.13477,-23.76758 -6.84673,-0.79321 -13.5578,-1.16724 -20.48632,-1.55273 -0.18927,-3.16742 -0.36536,-6.09058 -0.55274,-9.22657 -1.31396,-0.1693 -2.59155,-0.40532 -3.67578,-0.36132 z m 130.87692,0.125 c -0.9223,0.04 -2.1189,0.23768 -3.6718,0.53125 -0.082,1.04278 -0.3789,2.19763 -0.2247,3.28906 0.6923,4.89855 -1.4315,6.51904 -6.1874,6.11133 -4.0837,-0.3501 -8.2221,-0.0723 -12.5098,-0.0723 0.2505,4.50805 0.6526,8.4206 0.6348,12.33008 -0.019,4.03088 -0.4466,8.05823 -0.7247,12.57226 2.4513,0 4.4152,0.002 6.8575,0.002 4.0887,1.2e-4 7.6982,0 11.5449,0 0.2563,3.67419 0.4695,6.73022 0.6719,9.63086 4.9135,1.32421 6.8742,-0.0364 6.7656,-4.98438 -0.2482,-11.30559 -0.062,-22.61872 -0.086,-33.92969 -0.01,-4.30938 -0.3033,-5.6004 -3.0703,-5.48046 z m -56.8554,32.96679 c -0.014,0.009 -0.027,0.0187 -0.041,0.0274 0.014,-0.009 0.027,-0.0187 0.041,-0.0274 z m -0.6836,0.38867 c -0.8655,0.47369 -1.7751,0.89248 -2.6348,1.37305 -0.1208,0.0137 -0.2375,0.0226 -0.3574,0.0352 1.0938,-0.50862 2.0966,-0.93202 2.9922,-1.40821 z m 29.1289,12.95899 c -2.9237,3.08001 -5.7395,6.04541 -8.8379,9.21289 -1.2869,0.96918 -2.2902,1.73663 -3.7813,2.87695 9.8791,-0.58191 11.9104,-2.72761 12.6192,-12.08984 z m -71.00783,1.61523 c -0.43628,7.7138 4.15076,12.09406 10.57033,9.66407 -3.7044,-3.44983 -7.21029,-6.62324 -10.57033,-9.66407 z"
     style="display:inline;fill:none;fill-opacity:1;stroke:none;stroke-opacity:1"
     inkscape:highlight-color="#ff5555" /></g>


<g
   id="g94"
   inkscape:label="pumpe"
   style="display:inline"><path
     fill="#bdbdbd"
     opacity="1"
     stroke="none"
     d="m 1034.3429,926.92273 c -6.8044,0.75946 -12.4028,-0.51501 -15.6244,-6.72406 -3.3509,-6.45813 -1.3008,-13.79413 4.6251,-17.3858 6.2809,-3.80689 14.1875,-2.36237 18.1842,3.32238 4.1255,5.86774 3.1164,13.65784 -2.4984,18.29004 -1.2469,1.02881 -2.8413,1.63678 -4.6865,2.49744 z"
     id="path85" /><path
     fill="#fefefe"
     opacity="1"
     stroke="none"
     d="m 1044.3312,888.54571 c 15.0621,8.05451 19.7696,26.91895 10.6258,41.50831 -8.6286,13.76757 -28.3891,17.04766 -41.7025,6.9223 -12.0019,-9.12799 -15.18822,-25.42536 -7.3978,-37.83832 8.497,-13.53882 24.2295,-17.98792 38.4745,-10.59229 m -9.5774,38.31812 c 1.4343,-0.80176 3.0287,-1.40973 4.2756,-2.43854 5.6148,-4.6322 6.6239,-12.4223 2.4984,-18.29004 -3.9967,-5.68475 -11.9033,-7.12927 -18.1842,-3.32238 -5.9259,3.59167 -7.976,10.92767 -4.6251,17.3858 3.2216,6.20905 8.82,7.48352 16.0353,6.66516 z"
     id="path86" /><path
     fill="#bdbdbd"
     opacity="1"
     stroke="none"
     d="m 1065.0024,886.99756 c 0.258,0.34271 0.5214,0.68274 0.7515,1.044 0.016,0.0248 -0.2162,0.2074 -0.3329,0.31665 -0.1266,-0.28631 -0.2532,-0.57263 -0.4029,-1.10681 -0.023,-0.24792 -0.018,-0.2514 -0.016,-0.25384 z"
     id="path87" /><path
     fill="#bdbdbd"
     opacity="1"
     stroke="none"
     d="m 1079.1016,926.89746 c -2.4423,-6e-5 -4.4056,-6e-5 -6.8568,-6e-5 0.278,-4.51404 0.7049,-8.54309 0.7233,-12.57397 0.018,-3.90949 -0.3835,-7.82099 -0.634,-12.32905 4.2877,0 8.4252,-0.27746 12.5088,0.0726 4.756,0.40771 6.8807,-1.21381 6.1885,-6.11237 -0.1543,-1.09143 0.1421,-2.24652 0.2245,-3.28931 6.2116,-1.17425 6.7302,-0.79693 6.7421,4.94892 0.024,11.31097 -0.1627,22.62585 0.085,33.93145 0.1086,4.948 -1.8512,6.30799 -6.7648,4.98377 -0.2024,-2.90064 -0.4157,-5.9577 -0.6721,-9.6319 -3.8467,0 -7.4563,0 -11.545,-1.2e-4 z"
     id="path88" /><path
     fill="#bdbdbd"
     opacity="1"
     stroke="none"
     d="m 995.99078,887.98499 c -0.1026,0.0163 -0.19256,0.0487 -0.11944,0.0624 0.16308,-0.0188 0.13214,-0.0462 0.11944,-0.0624 z"
     id="path89" /><path
     fill="#bdbdbd"
     opacity="1"
     stroke="none"
     d="m 1064.9951,887.00348 c -5.787,-5.10352 -11.1595,-10.56525 -18.6951,-13.48871 -17.531,-6.80115 -38.7651,-1.00421 -50.02797,14.2959 -0.26855,0.19049 -0.23761,0.21789 -0.23761,0.21789 0.62445,-2.31683 1.41071,-4.60461 1.83295,-6.95776 0.53931,-3.00543 1.078,-6.06073 1.1062,-9.09936 0.12006,-12.90876 0.051,-12.90949 12.86473,-12.90943 14.6519,6e-5 29.3048,0.0933 43.9549,-0.0629 3.8172,-0.0407 5.6257,1.07788 5.2538,5.1137 -0.2283,2.47644 -0.053,4.99109 -0.039,7.48853 0.023,4.25195 -0.8845,8.74109 3.511,11.77569 0.572,0.39496 0.4002,1.86744 0.5272,3.23182 -0.046,0.39111 -0.051,0.39459 -0.051,0.39459 z"
     id="path90" /><path
     fill="#bdbdbd"
     opacity="1"
     stroke="none"
     d="m 988.76599,903.15063 c 0.13458,7.98224 0.13458,15.5448 0.13458,23.76734 -6.54797,0 -12.94647,0 -19.94128,0 0,2.76843 0.54809,5.09448 -0.16467,6.93115 -0.62696,1.61579 -2.50959,3.49378 -4.11621,3.80145 -2.31342,0.44312 -3.758,-1.16601 -3.73176,-3.99231 0.11628,-12.49389 0.075,-24.98962 0.039,-37.48449 -0.015,-5.18109 3.23767,-4.2533 6.74157,-3.80182 0.18738,3.13598 0.36206,6.05902 0.55133,9.22644 6.92853,0.3855 13.64069,0.75903 20.48743,1.55224 z"
     id="path91" /><path
     fill="#bdbdbd"
     opacity="1"
     stroke="none"
     d="m 1017.5181,950.68542 c -12.0089,-5.33508 -20.24173,-13.50585 -23.74277,-26.11499 -6.83978,-24.63311 10.94667,-48.9245 36.65537,-49.74737 15.7287,-0.50336 32.7043,12.35211 36.992,27.85217 4.517,16.32929 -1.2363,34.06079 -15.0715,43.42975 -10.693,7.24109 -22.1694,9.09308 -34.8331,4.58044 m 26.4957,-62.33825 c -13.9276,-7.19709 -29.6601,-2.74799 -38.1571,10.79083 -7.79042,12.41296 -4.6041,28.71033 7.3978,37.83832 13.3134,10.12536 33.0739,6.84527 41.7025,-6.9223 9.1438,-14.58936 4.4363,-33.4538 -10.9432,-41.70685 z"
     id="path92" /><path
     fill="#bdbdbd"
     opacity="1"
     stroke="none"
     d="m 1057.6804,947.66199 c 3.0984,-3.16748 5.9134,-6.13294 8.8371,-9.21295 -0.7088,9.36224 -2.7393,11.50775 -12.6183,12.08966 1.4911,-1.14032 2.4944,-1.90754 3.7812,-2.87671 z"
     id="path93" /><path
     fill="#bdbdbd"
     opacity="1"
     stroke="none"
     d="m 1006.0801,949.729 c -6.41952,2.43 -11.00753,-1.95056 -10.57125,-9.66436 3.36005,3.04083 6.86695,6.21453 10.57125,9.66436 z"
     id="path94" /></g></svg>
