<svg xmlns="http://www.w3.org/2000/svg" xmlns:xlink="http://www.w3.org/1999/xlink" version="1.1" id="Ebene_1" x="0px" y="0px" viewBox="0 0 900 280" style="enable-background:new 0 0 900 280;" xml:space="preserve">
	<defs>
        <style>
            @import url("https://fonts.googleapis.com/css?family=Roboto:400,400i,700,700i");
        </style>
    </defs>
    <style type="text/css">
	.stColdWater{fill:#6E8CA0;}
	.stHotWater{fill:#C86464;}
	.stPumpActive{fill:#87AD27;}
	.stPumpInActive{fill:#BBBBBB;}
	.stHeatingOn{fill-rule:evenodd;clip-rule:evenodd;fill:#FF3232;}
	.stHeatingOff{fill-rule:evenodd;clip-rule:evenodd;fill:#BBBBBB;}
	.st3{fill:#969696;}
	.st4{fill:none;stroke:#969696;stroke-miterlimit:10;}
	.st6{fill:#C8C8C8;}
	.st7{fill:#646464;}
	.st8{fill:#323232;}	.st9{font-style:normal;font-variant:normal;font-weight:normal;font-stretch:normal;font-family:Roboto,Arial,Helvetica,sans-serif;font-specification:'Roboto,Normal';font-variant-ligatures:normal;font-variant-caps:normal;font-variant-numeric:normal;font-feature-settings:normal;text-align:center;writing-mode:lr-tb;text-anchor:left;}
	.st10{font-size:14px;}
	.st11{fill:#787878;}
	.st12{fill:#FFFFFF;}
</style>
    <path id="boiler-return-02" class="stColdWater" d="M453.4,200.2h-1.1c-0.2,0-0.4,0.2-0.4,0.4v2.2h-85.1l0,6h85.2v2.4c0,0.2,0.2,0.4,0.4,0.4  h1.1c0.2,0,0.4-0.2,0.4-0.4v-10.5C453.8,200.4,453.6,200.2,453.4,200.2z M410.2,208l-4.8-2.2l4.8-2.2V208z"/>
    <path id="boiler-return-01" class="stColdWater" d="M491.7,203v-2.4c0-0.2-0.2-0.4-0.4-0.4h-1.1c-0.2,0-0.4,0.2-0.4,0.4v10.5  c0,0.2,0.2,0.4,0.4,0.4h1.1c0.2,0,0.4-0.2,0.4-0.4V209h84.6v-6H491.7z M533.7,208l-4.8-2.2l4.8-2.2V208z"/>
    <path id="boiler-flow" class="stHotWater" d="M485.8,64.1v88h-119v6h125v-88h84.5v-6H485.8z M406,157.3v-4.4l4.8,2.2L406,157.3z   M529.5,69.3v-4.4l4.8,2.2L529.5,69.3z"/>
    <g id="obj_pump-01" class="stPumpInActive"><title>Aktueller Status der Pufferpumpe</title>
        <path d="M475.3,205.7c0-1.8-1.5-3.3-3.3-3.3c-1.8,0-3.3,1.5-3.3,3.3c0,1.8,1.5,3.3,3.3,3.3   C473.8,209,475.3,207.5,475.3,205.7z"/>
        <path d="M456.7,211.1v-2.3h5.2c-0.3-1-0.5-2.1-0.5-3.2c0-1.1,0.2-2.1,0.4-3h-5.2v-2.1c0-0.2-0.2-0.4-0.4-0.4h-1.1   c-0.2,0-0.4,0.2-0.4,0.4v10.5c0,0.2,0.2,0.4,0.4,0.4h1.1C456.5,211.5,456.7,211.4,456.7,211.1z"/>
        <path d="M463,211.3c0.1,0.7,0.3,1.5,0.5,2.2c0.1,0.5,0.3,0.8,1,1c0.8,0.2,1.6,0.4,2.3,0.5   C465.2,214.1,463.9,212.8,463,211.3z"/>
        <path d="M477.3,215c0.8-0.1,1.5-0.3,2.3-0.5c0.6-0.2,0.8-0.4,1-1c0.2-0.8,0.4-1.5,0.5-2.3   C480.1,212.8,478.8,214.1,477.3,215z"/>
        <path d="M486.9,200.6v2.1h-4.7c0.3,1,0.4,2,0.4,3c0,1.1-0.2,2.2-0.5,3.2h4.8v2.3c0,0.2,0.2,0.4,0.4,0.4h1.1   c0.2,0,0.4-0.2,0.4-0.4v-10.5c0-0.2-0.2-0.4-0.4-0.4h-1.1C487,200.2,486.9,200.4,486.9,200.6z"/>
        <path d="M472,195c3.7,0,7,2,8.9,4.9c-0.1-0.5-0.2-1-0.3-1.5c0-0.5-0.4-0.8-0.9-1v-4.8c0-0.2-0.2-0.4-0.4-0.4l-14.6,0   c0,0-0.2,0-0.3,0.1c-0.1,0.1-0.1,0.2-0.1,0.2l0,4.8c-0.5,0.2-0.7,0.4-0.8,0.9c-0.1,0.5-0.2,1-0.3,1.5C465,196.9,468.3,195,472,195z   "/>
        <path d="M481.6,205.7c0-5.4-4.3-9.7-9.6-9.7c-5.3,0-9.6,4.3-9.6,9.7c0,5.4,4.3,9.7,9.6,9.7   C477.3,215.4,481.6,211.1,481.6,205.7z M464.8,205.7c0-4,3.2-7.2,7.2-7.2c4,0,7.2,3.2,7.2,7.2c0,4-3.2,7.2-7.2,7.2   C468,212.9,464.8,209.7,464.8,205.7z"/>
</g>
    <g id="boiler">
	<path class="st3" d="M381.2,90.2l0,28.9h-13.6v-8.6c0-1.1-1-2.1-2.1-2.1h-91.2c-1.1,0-2.1,1-2.1,2.1V240c0,1.1,1,2.1,2.1,2.1h91.2   c1.1,0,2.1-1,2.1-2.1V131.7l21,0c2.9,0,5.2-2.3,5.2-5.2V90.2H381.2z M363.2,237.8h-86.9V112.7h86.9V237.8z"/>
        <path class="st4" d="M339.3,224h-38.6c-2.8,0-5-2.3-5-5v-38.6c0-2.8,2.3-5,5-5h38.6c2.8,0,5,2.3,5,5V219   C344.3,221.7,342.1,224,339.3,224z"/>
</g>
    <g id="obj_flame" class="stHeatingOff">
	<title>Betriebszustand</title>
        <path d="M305.3,212.8c0.4,4.9,3.7,11.8,12.3,10c-3.6-1-6.5-4.3-7.7-10.4c0.8,0.2,1.9,0.9,2.3,1.1   c-0.2-0.9,0.1-3.4,1.4-6.4c1.5,7.7,2.6,9,4.1,9.3c-1.4-3.7-1.3-6.9-0.1-9.4c0.6,2.4,1.8,4.2,2.9,5.4c1.8-2.2,2.6-5.1,1.8-11.4   c4,5.3,3.7,8.6,2.4,10.6c1.1-0.3,2.7-1.8,3.8-4.4c1,1.2,0.8,3.4-0.1,5.9c0.6-0.2,1.6-0.6,2.2-1.1c-1,7.3-5.2,8.2-9.2,10.4   c5.7,2.3,15.1-1.1,16.2-8.8c0.3-1.3-0.1-3.2-0.4-4.7c-0.6,1-0.9,2.3-1.8,2.8c-0.2-1.4,0.2-2.6,0.8-3.8c1.1-4.3,0.4-7.9-1.9-10.7   c-0.4,2.1-0.9,3.9-1.9,4.4c-1.1-6.5-3.1-11-5.5-12.2c0.2,1.9,0.1,3.5-0.6,4.9c-2-7.2-5.5-6.7-6.5-13.2c-1,0.7-1.2,2.3-1.4,3.7   c0,2.9,0.2,5.7-1,7.1c-1.1-2.1-2.1-3.8-3.9-4c1.3,2.7,0.8,7.4-1.1,12.5c-0.7-1.3-1.9-3.9-3.6-4.3c0.4,3.4-0.1,7.3-0.9,10.9   c-0.5-0.8-1.5-1.7-2.6-2.3C306.6,207.9,304.8,209.4,305.3,212.8z M320.9,191c0.2,2.7,0,5.5-0.8,6.9C320,195.3,319.7,193.8,320.9,191   z"/>
</g>
    <g id="boiler-temp">
	<title>Kesseltemperatur</title>
        <g id="label_boiler-temp">
		<path id="frame_bg_6" class="st12" d="M349.9,154.9c0,1.4-1.1,2.5-2.5,2.5h-42.9c0.8-0.5,1.4-1.5,1.4-2.5v-24.5    c0-1.1-0.6-2-1.4-2.5h42.9c1.4,0,2.5,1.1,2.5,2.5V154.9z"/>
            <path id="frame_4" class="st6" d="M347.3,126.9h-55.1c-1.9,0-3.5,1.6-3.5,3.5v24.5c0,1.9,1.6,3.5,3.5,3.5h55.1    c1.9,0,3.5-1.6,3.5-3.5v-24.5C350.8,128.4,349.2,126.9,347.3,126.9z M349.9,154.9c0,1.4-1.1,2.5-2.5,2.5h-42.9    c0.8-0.5,1.4-1.5,1.4-2.5v-24.5c0-1.1-0.6-2-1.4-2.5h42.9c1.4,0,2.5,1.1,2.5,2.5V154.9z"/>
            <g id="symb_thermometer_4">
			<rect x="292.7" y="138.4" class="st7" width="3" height="2.1"/>
                <rect x="292.7" y="134.6" class="st7" width="3" height="2.1"/>
                <path class="st7" d="M299.9,145.1v-10.6c0-2.3-3.4-2.3-3.4,0v10.6c-1.5,0.7-2.5,2.2-2.5,3.9c0,2.3,1.9,4.2,4.2,4.2     s4.2-1.9,4.2-4.2C302.4,147.2,301.4,145.7,299.9,145.1z"/>
                <rect x="292.7" y="142.1" class="st7" width="3" height="2.1"/>
		</g>
	</g>
        <g id="txt_boiler-temp">
		<text transform="matrix(1 0 0 1 308.6099 147.3701)" class="st8 st9 st10">70°C</text>
	</g>
</g>
    <g id="pump-01-rpm">
	<title>Pufferpumpen Ansteuerung</title>
        <g id="label_pump-01-rpm">
		<path id="frame_bg_5" class="st12" d="M532.6,246.5c0,1.4-1.1,2.5-2.5,2.5h-43.4c0.8-0.5,1.3-1.4,1.3-2.5V223    c0-1-0.5-1.9-1.3-2.5h43.4c1.4,0,2.5,1.1,2.5,2.5V246.5z"/>
            <path id="frame_5" class="st6" d="M530.2,219.4h-71c-1.9,0-3.5,1.6-3.5,3.5v23.5c0,1.9,1.6,3.5,3.5,3.5h71    c1.9,0,3.5-1.6,3.5-3.5V223C533.7,221,532.1,219.4,530.2,219.4z M532.6,246.5c0,1.4-1.1,2.5-2.5,2.5h-43.4c0.8-0.5,1.3-1.4,1.3-2.5    V223c0-1-0.5-1.9-1.3-2.5h43.4c1.4,0,2.5,1.1,2.5,2.5V246.5z"/>
            <g id="symb_rpm">
			<path class="st7" d="M471.5,225.3c-7.4,0-13.5,6.1-13.5,13.5v0.5h3.5v-1H459c0.1-3.1,1.4-5.9,3.3-8l1.8,1.8l0.7-0.7l-1.8-1.8     c2.1-2,4.9-3.2,8-3.3v2.5h1v-2.5c3.1,0.1,5.9,1.3,8,3.3l-1.7,1.7l0.7,0.7l1.7-1.7c2,2.1,3.2,4.9,3.3,8h-2.5v1h3.5v-0.5     C485,231.4,479,225.3,471.5,225.3z"/>
                <path class="st7" d="M469.5,240.4c1.7,1.7,3,0.8,3,0.8l4.2-8l-8,4.2C468.7,237.4,467.8,238.7,469.5,240.4z"/>
		</g>
	</g>
        <g id="txt_pump-01-rpm">
		<text transform="matrix(1 0 0 1 493.5977 240.2959)" class="st8 st9 st10">0%</text>
	</g>
</g>
    <path id="buffer-tank" class="st11" d="M740.4,53.9c0-17.5-41.7-26.9-80.9-26.9h-3.2c-39.2,0-80.9,9.4-80.9,26.9v161.3  c0,4.3,2.5,8.2,7.6,11.8l-9.7,15.1l29,0l3.5-5.6c14.2,3.7,32.1,5.7,50.5,5.7h3.2c18.5,0,36.3-2,50.5-5.7l3.5,5.6l29,0l-9.7-15.1  c5-3.6,7.6-7.5,7.6-11.8V53.9z M735.3,215.2c0,3.7-4,6.9-7.3,8.9l-2.2,1.4l7.4,11.6l-16.8,0l-4-6.4l-1.8,0.5c-14.1,3.8-32.2,6-51,6  h-3.2c-18.8,0-37-2.1-51-6l-1.8-0.5l-4,6.4l-16.8,0l7.4-11.6l-2.2-1.4c-3.3-2-7.3-5.2-7.3-8.9V53.9c0-10.3,31.1-21.8,75.8-21.8h3.2  c44.7,0,75.8,11.5,75.8,21.8V215.2z"/>
    <path id="obj_loading-bar-01" class="stHotWater" d="M731.7,82.4V53.9c0-2.2-5-7.1-18.6-11.4c-14.2-4.4-33.3-6.9-53.6-6.9h-3.2  c-20.3,0-39.4,2.4-53.6,6.9c-13.7,4.3-18.6,9.1-18.6,11.4v28.5H731.7z"/>
    <rect id="obj_loading-bar-02" class="stHotWater" x="584" y="86" width="147.7" height="46.8"/>
    <rect id="obj_loading-bar-03" class="stHotWater" x="584" y="136.3" width="147.7" height="46.8"/>
    <path id="obj_loading-bar-04" class="stColdWater" d="M584,186.7v28.5c0,2.2,5,7.1,18.6,11.4c14.2,4.4,33.3,6.9,53.6,6.9h3.2  c20.3,0,39.4-2.4,53.6-6.9c13.7-4.3,18.6-9.1,18.6-11.4v-28.5H584z"/>
    <g id="buffer-load">
	<title>Ladezustand des Pufferspeichers</title>
        <g id="label_buffer-load">
		<path id="frame_bg" class="st12" d="M693.5,145.9c0,1.4-1.1,2.5-2.5,2.5h-43.4c0.8-0.5,1.3-1.4,1.3-2.5v-23.5    c0-1-0.5-1.9-1.3-2.5H691c1.4,0,2.5,1.1,2.5,2.5V145.9z"/>
            <path id="frame_6" class="st6" d="M691,118.9h-71c-1.9,0-3.5,1.6-3.5,3.5v23.5c0,1.9,1.6,3.5,3.5,3.5h71    c1.9,0,3.5-1.6,3.5-3.5v-23.5C694.6,120.4,693,118.9,691,118.9z M693.5,145.9c0,1.4-1.1,2.5-2.5,2.5h-43.4c0.8-0.5,1.3-1.4,1.3-2.5    v-23.5c0-1-0.5-1.9-1.3-2.5H691c1.4,0,2.5,1.1,2.5,2.5V145.9z"/>
            <g id="symb_buffer-01">
			<path class="st7" d="M639,122.9c-2.9,0-5.2,2.4-5.2,5.2c0,2.9,2.4,5.3,5.2,5.3c2.9,0,5.3-2.4,5.3-5.3     C644.3,125.3,641.9,122.9,639,122.9z M640.1,131.5h-1.3v-4.8c-0.5,0.4-1,0.8-1.7,1v-1.2c0.3-0.1,0.7-0.3,1.1-0.6     c0.4-0.3,0.7-0.7,0.8-1.1h1V131.5z"/>
                <path class="st7" d="M640,134.7c-0.3,0-0.7,0.1-1,0.1c-1.1,0-2.1-0.3-3.1-0.7c-0.1,0-0.1,0-0.2,0l-9.4-1c-1.7-0.2-1.5-2.7,0.2-2.5     l6.4,0.7c-0.3-0.6-0.5-1.3-0.7-2l-6-0.7c-1.7-0.2-1.5-2.7,0.2-2.5l5.8,0.6c0.3-1.5,1.1-2.7,2.2-3.7c-1-0.1-2.1-0.2-3.2-0.2h-0.4     c-4.8,0-8.6,1.2-8.6,2.7v17.7c0,0.4,0.3,0.8,0.9,1.2l-0.9,1.5l2.5,0l0.4-0.7c1.5,0.4,3.5,0.7,5.7,0.7h0.4c2.2,0,4.2-0.3,5.7-0.7     l0.4,0.7l2.5,0l-0.9-1.5c0.6-0.4,0.9-0.8,0.9-1.2v-1.1h3v-1.9h-3V134.7z M635.8,142.8l-9.4-1c-1.7-0.2-1.5-2.7,0.2-2.5l9.4,1     C637.8,140.5,637.5,143,635.8,142.8z M635.8,138.4l-9.4-1c-1.7-0.2-1.5-2.7,0.2-2.5l9.4,1C637.8,136.1,637.5,138.6,635.8,138.4z"/>
		</g>
	</g>
        <g id="txt_buffer-load">
		<text transform="matrix(1 0 0 1 653.5208 139.5522)" class="st8 st9 st10">68%</text>
	</g>
</g>
    <g id="buffer-lower-sensor">
	<title>Aktuelle Tempertaur am unteren Fühler im Pufferspeicher</title>
        <g id="label_buffer-lower-sensor">
		<path id="frame_bg_1" class="st12" d="M814.4,221.6c0,1.4-1.1,2.5-2.5,2.5h-41.4c0.8-0.5,1.4-1.5,1.4-2.5v-23.5    c0-1.1-0.6-2-1.4-2.5h41.4c1.4,0,2.5,1.1,2.5,2.5V221.6z"/>
            <path id="frame" class="st6" d="M811.8,194.6h-53c-1.9,0-3.5,1.6-3.5,3.5v23.5c0,1.9,1.6,3.5,3.5,3.5h53    c1.9,0,3.5-1.6,3.5-3.5v-23.5C815.3,196.2,813.8,194.6,811.8,194.6z M814.4,221.6c0,1.4-1.1,2.5-2.5,2.5h-41.4    c0.8-0.5,1.4-1.5,1.4-2.5v-23.5c0-1.1-0.6-2-1.4-2.5h41.4c1.4,0,2.5,1.1,2.5,2.5V221.6z"/>
            <g id="symb_thermometer">
			<rect x="759.2" y="205.8" class="st7" width="2.9" height="2"/>
                <rect x="759.2" y="202.2" class="st7" width="2.9" height="2"/>
                <path class="st7" d="M766.1,212.2V202c0-2.2-3.3-2.2-3.3,0v10.3c-1.4,0.6-2.5,2.1-2.5,3.8c0,2.3,1.8,4.1,4.1,4.1     c2.3,0,4.1-1.8,4.1-4.1C768.6,214.3,767.6,212.9,766.1,212.2z"/>
                <rect x="759.2" y="209.4" class="st7" width="2.9" height="2"/>
		</g>
	</g>
        <g id="txt_buffer-lower-sensor">
		<text transform="matrix(1 0 0 1 777.2209 215.4353)" class="st8 st9 st10">50°C</text>
	</g>
</g>
    <g id="buffer-upper-sensor">
	<title>Aktuelle Tempertaur am oberen Fühler im Pufferspeicher</title>
        <g id="label_buffer-upper-sensor">
		<path id="frame_bg_4" class="st12" d="M814.4,69.7c0,1.4-1.1,2.5-2.5,2.5h-41.4c0.8-0.5,1.4-1.5,1.4-2.5V46.2    c0-1.1-0.6-2-1.4-2.5h41.4c1.4,0,2.5,1.1,2.5,2.5V69.7z"/>
            <path id="frame_3" class="st6" d="M811.8,42.7h-53c-1.9,0-3.5,1.6-3.5,3.5v23.5c0,1.9,1.6,3.5,3.5,3.5h53    c1.9,0,3.5-1.6,3.5-3.5V46.2C815.3,44.3,813.8,42.7,811.8,42.7z M814.4,69.7c0,1.4-1.1,2.5-2.5,2.5h-41.4c0.8-0.5,1.4-1.5,1.4-2.5    V46.2c0-1.1-0.6-2-1.4-2.5h41.4c1.4,0,2.5,1.1,2.5,2.5V69.7z"/>
            <g id="symb_thermometer_3">
			<rect x="759.2" y="53.9" class="st7" width="2.9" height="2"/>
                <rect x="759.2" y="50.3" class="st7" width="2.9" height="2"/>
                <path class="st7" d="M766.1,60.3V50.1c0-2.2-3.3-2.2-3.3,0v10.3c-1.4,0.6-2.5,2.1-2.5,3.8c0,2.3,1.8,4.1,4.1,4.1     c2.3,0,4.1-1.8,4.1-4.1C768.6,62.4,767.6,61,766.1,60.3z"/>
                <rect x="759.2" y="57.5" class="st7" width="2.9" height="2"/>
		</g>
	</g>
        <g id="txt_buffer-upper-sensor">
		<text transform="matrix(1 0 0 1 773.2424 63.5206)" class="st8 st9 st10">74°C</text>
	</g>
	</g>
	</svg>