<svg xmlns="http://www.w3.org/2000/svg" xmlns:xlink="http://www.w3.org/1999/xlink" version="1.1" id="Ebene_1" x="0px" y="0px" viewBox="0 0 400 280" style="enable-background:new 0 0 400 280;" xml:space="preserve">
	<defs>
        <style>
            @import url("https://fonts.googleapis.com/css?family=Roboto:400,400i,700,700i");			
        </style>
    </defs> 
<style type="text/css">
	.stColdWater{fill:#6E8CA0;}
	.stHotWater{fill:#C86464;}
	.stPumpActive{fill:#87AD27;}
	.stPumpInActive{fill:#BBBBBB;}
	.st2{fill:#787878;}
	.st3{fill:#87AD27;}
	.st4{opacity:0.5;}
	.st5{fill:#FFFFFF;stroke:#C8C8C8;stroke-width:1.0555;stroke-miterlimit:10;}
	.st6{fill:#C8C8C8;}
	.st7{fill:#646464;}
	.st8{fill:#323232;}	.st9{font-style:normal;font-variant:normal;font-weight:normal;font-stretch:normal;font-family:Roboto,Arial,Helvetica,sans-serif;font-specification:'Roboto,Normal';font-variant-ligatures:normal;font-variant-caps:normal;font-variant-numeric:normal;font-feature-settings:normal;text-align:center;writing-mode:lr-tb;text-anchor:middle;}
	.st10{font-size:14px;}
</style>
<path id="return-line-02" class="stColdWater" d="M137.7,202v-2.4c0-0.2-0.2-0.4-0.4-0.4h-1.1c-0.2,0-0.4,0.2-0.4,0.4v10.5  c0,0.2,0.2,0.4,0.4,0.4h1.1c0.2,0,0.4-0.2,0.4-0.4V208h85.1l0-6H137.7z M181.4,207.1l-4.8-2.2l4.8-2.2V207.1z"/>
<path id="return-line-01" class="stColdWater" d="M99.4,199.2h-1.1c-0.2,0-0.4,0.2-0.4,0.4v2.2H12.7l0,6h85.2v2.4c0,0.2,0.2,0.4,0.4,0.4h1.1  c0.2,0,0.4-0.2,0.4-0.4v-10.5C99.8,199.4,99.6,199.2,99.4,199.2z M54.9,207.1l-4.8-2.2l4.8-2.2V207.1z"/>
<path id="supply-line" class="stHotWater" d="M12.7,105.2v6h208.6v-6H12.7z M50.7,110.2v-4.4l4.8,2.2L50.7,110.2z M177.2,110.2v-4.4  l4.8,2.2L177.2,110.2z"/>
<path id="dhw-tank" class="st2" d="M388.5,241.1l-29,0l-3.5-5.6c-14.2,3.7-32.1,5.7-50.5,5.7h-3.2c-18.5,0-36.3-2-50.5-5.7l-3.5,5.6  l-29,0l9.7-15.1c-5-3.6-7.6-7.5-7.6-11.8V52.9c0-17.5,41.7-26.9,80.9-26.9h3.2c39.2,0,80.9,9.4,80.9,26.9v151.6h-5.1V52.9  c0-10.3-31.1-21.8-75.8-21.8h-3.2c-44.7,0-75.8,11.5-75.8,21.8v161.3c0,3.7,4,6.9,7.3,8.9l2.2,1.4l-7.4,11.6l16.8,0l4-6.4l1.8,0.5  c14.1,3.8,32.2,6,51,6h3.2c18.8,0,37-2.1,51-6l1.8-0.5l4,6.4l16.8,0l-7.4-11.6l2.2-1.4c3.3-2,7.3-5.2,7.3-8.9v-9.7h5.1v9.7  c0,4.3-2.5,8.2-7.6,11.8L388.5,241.1z"/>
<path id="obj_loading-bar-01" class="stHotWater" d="M377.7,81.4V52.9c0-2.2-5-7.1-18.6-11.4c-14.2-4.4-33.3-6.9-53.6-6.9h-3.2  c-20.3,0-39.4,2.4-53.6,6.9c-13.7,4.3-18.6,9.1-18.6,11.4v28.5H377.7z"/>
<rect id="obj_loading-bar-02" x="230" y="85" class="stHotWater" width="147.7" height="46.8"/>
<rect id="obj_loading-bar-03" x="230" y="135.3" class="stHotWater" width="147.7" height="46.8"/>
<path id="obj_loading-bar-04" class="stHotWater" d="M230,185.7v28.5c0,2.2,5,7.1,18.6,11.4c14.2,4.4,33.3,6.9,53.6,6.9h3.2  c20.3,0,39.4-2.4,53.6-6.9c13.7-4.3,18.6-9.1,18.6-11.4v-28.5H230z"/>
<g id="obj_pump-01" class="stPumpInActive"><title>Status der Boilerladepumpe</title>
	<path d="M121.3,204.7c0-1.8-1.5-3.3-3.3-3.3s-3.3,1.5-3.3,3.3c0,1.8,1.5,3.3,3.3,3.3S121.3,206.5,121.3,204.7z"/>
	<path d="M102.7,210.1v-2.3h5.2c-0.3-1-0.5-2.1-0.5-3.2c0-1.1,0.2-2.1,0.4-3h-5.2v-2.1c0-0.2-0.2-0.4-0.4-0.4h-1.1   c-0.2,0-0.4,0.2-0.4,0.4v10.5c0,0.2,0.2,0.4,0.4,0.4h1.1C102.5,210.5,102.7,210.4,102.7,210.1z"/>
	<path d="M109,210.3c0.1,0.7,0.3,1.5,0.5,2.2c0.1,0.5,0.3,0.8,1,1c0.8,0.2,1.6,0.4,2.3,0.5   C111.2,213.1,109.9,211.8,109,210.3z"/>
	<path d="M123.3,214c0.8-0.1,1.5-0.3,2.3-0.5c0.6-0.2,0.8-0.4,1-1c0.2-0.8,0.4-1.5,0.5-2.3   C126.1,211.8,124.8,213.1,123.3,214z"/>
	<path d="M132.9,199.6v2.1h-4.7c0.3,1,0.4,2,0.4,3c0,1.1-0.2,2.2-0.5,3.2h4.8v2.3c0,0.2,0.2,0.4,0.4,0.4h1.1   c0.2,0,0.4-0.2,0.4-0.4v-10.5c0-0.2-0.2-0.4-0.4-0.4h-1.1C133,199.2,132.9,199.4,132.9,199.6z"/>
	<path d="M118,194c3.7,0,7,2,8.9,4.9c-0.1-0.5-0.2-1-0.3-1.5c0-0.5-0.4-0.8-0.9-1v-4.8c0-0.2-0.2-0.4-0.4-0.4l-14.6,0   c0,0-0.2,0-0.3,0.1c-0.1,0.1-0.1,0.2-0.1,0.2l0,4.8c-0.5,0.2-0.7,0.4-0.8,0.9c-0.1,0.5-0.2,1-0.3,1.5C111,195.9,114.3,194,118,194z   "/>
	<path d="M127.6,204.7c0-5.4-4.3-9.7-9.6-9.7c-5.3,0-9.6,4.3-9.6,9.7c0,5.4,4.3,9.7,9.6,9.7   C123.3,214.4,127.6,210.1,127.6,204.7z M110.8,204.7c0-4,3.2-7.2,7.2-7.2c4,0,7.2,3.2,7.2,7.2c0,4-3.2,7.2-7.2,7.2   C114,211.9,110.8,208.7,110.8,204.7z"/>
</g>
<path id="heater-coil" class="st4" d="M330.6,202.8L285,182.2l44.8-6.7c1.3-0.2,2.3-1.2,2.4-2.5c0.1-1.3-0.7-2.4-2-2.8l-45.3-13.6  l45.3-13.6c1.3-0.4,2.1-1.5,2-2.8c-0.1-1.3-1.1-2.3-2.4-2.5l-44.8-6.7l45.6-20.6c1.2-0.6,1.9-1.8,1.6-3.1c-0.3-1.2-1.5-2.1-2.8-2.1  h-51.6h-2.2h-49v5.4h49h2.2h38.9l-42.4,19.2c-1.1,0.5-1.8,1.7-1.6,2.8c0.2,1.2,1.2,2.1,2.4,2.3l41.9,6.3L274.5,154  c-1.2,0.4-2,1.4-2,2.6s0.8,2.2,2,2.6l42.4,12.8l-41.9,6.3c-1.3,0.2-2.2,1.1-2.4,2.3c-0.2,1.2,0.5,2.3,1.6,2.8l42.4,19.2h-40.2h-1  h-49v5.4h49h1h52.8c1.4,0,2.5-0.9,2.8-2.1C332.4,204.6,331.8,203.3,330.6,202.8z"/>
<g id="label_pump-01-rpm"><title>Ansteuerung der Boilerladepumpe</title>
	<path id="frame" class="st5" d="M176,253.9h-71c-1.7,0-3-1.3-3-3v-23.5c0-1.6,1.3-3,3-3h71c1.7,0,3,1.4,3,3v23.5   C179,252.6,177.6,253.9,176,253.9z"/>
	<g id="symb_rpm">
		<path class="st6" d="M130.9,253.9h-26c-1.7,0-3-1.3-3-3v-23.5c0-1.6,1.3-3,3-3h26c1.6,0,3,1.4,3,3v23.5    C133.9,252.6,132.6,253.9,130.9,253.9z"/>
		<g>
			<path class="st7" d="M117.3,229.8c-7.4,0-13.5,6.1-13.5,13.5v0.5h3.5v-1h-2.5c0.1-3.1,1.4-5.9,3.3-8l1.8,1.8l0.7-0.7l-1.8-1.8     c2.1-2,4.9-3.2,8-3.3v2.5h1v-2.5c3.1,0.1,5.9,1.3,8,3.3l-1.7,1.7l0.7,0.7l1.7-1.7c2,2.1,3.2,4.9,3.3,8h-2.5v1h3.5v-0.5     C130.8,235.8,124.8,229.8,117.3,229.8z"/>
			<path class="st7" d="M115.3,244.9c1.7,1.7,3,0.8,3,0.8l4.2-8l-8,4.2C114.5,241.8,113.6,243.2,115.3,244.9z"/>
		</g>
	</g>
</g>
<text id="txt_pump-01-rpm" transform="matrix(1 0 0 1 156 244.7336)" class="st8 st9 st10">0%</text>
<g id="label_dhw-temp"><title>Boilertemperatur oben</title>
	<path id="frame_1_" class="st5" d="M337,97.9h-71c-1.6,0-3-1.3-3-3V71.4c0-1.6,1.4-3,3-3h71c1.6,0,3,1.4,3,3v23.5   C340,96.5,338.7,97.9,337,97.9z"/>
	<g id="symb_dhw-temp">
		<path class="st6" d="M292,97.9h-26c-1.6,0-3-1.3-3-3V71.4c0-1.6,1.4-3,3-3h26c1.7,0,3,1.4,3,3v23.5C295,96.5,293.6,97.9,292,97.9z    "/>
		<g>
			<path class="st7" d="M266.5,91.2c0.6-1.6,1.5-4.1,2.3-4.1c0.6,0,1.7,2.6,2.3,4.1c0.7,1.8-1,2-2.3,2S265.9,93,266.5,91.2z"/>
			<path class="st7" d="M266.5,81.9c0-2.6,2.1-4.7,4.7-4.7h8v-1.8h-3.9c-1,0-1.9-0.5-1.9-1.2c0-0.7,0.8-1.2,1.9-1.2h10.2     c1,0,1.9,0.5,1.9,1.2c0,0.7-0.8,1.2-1.9,1.2h-3.9v1.8h9.9v5h-17.7c-1.5,0-2.8,1.3-2.8,2.8V86l-4.5,0V81.9z"/>
		</g>
	</g>
</g>
<text id="txt_dhw-temp" transform="matrix(1 0 0 1 316.5 88.718)" class="st8 st9 st10">74°C</text>
</svg>