<?xml version="1.0" encoding="UTF-8" standalone="no"?>
<svg
   version="1.1"
   id="Ebene_1"
   x="0px"
   y="0px"
   viewBox="0 0 575 280"
   xml:space="preserve"
   sodipodi:docname="froeling_puffer01.svg"
   width="575"
   height="280"
   inkscape:version="1.3 (0e150ed6c4, 2023-07-21)"
   xmlns:inkscape="http://www.inkscape.org/namespaces/inkscape"
   xmlns:sodipodi="http://sodipodi.sourceforge.net/DTD/sodipodi-0.dtd"
   xmlns="http://www.w3.org/2000/svg"
   xmlns:svg="http://www.w3.org/2000/svg"><sodipodi:namedview
   id="namedview21"
   pagecolor="#ffffff"
   bordercolor="#000000"
   borderopacity="0.25"
   inkscape:showpageshadow="2"
   inkscape:pageopacity="0.0"
   inkscape:pagecheckerboard="0"
   inkscape:deskcolor="#d1d1d1"
   inkscape:zoom="0.77277778"
   inkscape:cx="328.03738"
   inkscape:cy="-5.1761323"
   inkscape:window-width="958"
   inkscape:window-height="1128"
   inkscape:window-x="946"
   inkscape:window-y="0"
   inkscape:window-maximized="0"
   inkscape:current-layer="Ebene_1" />&#10;	<defs
   id="defs1">&#10;        <style
   id="style1">&#10;            @import url(&quot;https://fonts.googleapis.com/css?family=Roboto:400,400i,700,700i&quot;);&#10;        </style>&#10;    </defs>&#10;    <style
   type="text/css"
   id="style2">&#10;	.stColdWater{fill:#6E8CA0;}&#10;	.stHotWater{fill:#C86464;}&#10;	.stPumpActive{fill:#87AD27;}&#10;	.stPumpInActive{fill:#BBBBBB;}&#10;	.stHeatingOn{fill-rule:evenodd;clip-rule:evenodd;fill:#FF3232;}&#10;	.stHeatingOff{fill-rule:evenodd;clip-rule:evenodd;fill:#BBBBBB;}&#10;	.st3{fill:#969696;}&#10;	.st4{fill:none;stroke:#969696;stroke-miterlimit:10;}&#10;	.st6{fill:#C8C8C8;}&#10;	.st7{fill:#646464;}&#10;	.st8{fill:#323232;}	.st9{font-style:normal;font-variant:normal;font-weight:normal;font-stretch:normal;font-family:Roboto,Arial,Helvetica,sans-serif;font-specification:'Roboto,Normal';font-variant-ligatures:normal;font-variant-caps:normal;font-variant-numeric:normal;font-feature-settings:normal;text-align:center;writing-mode:lr-tb;text-anchor:left;}&#10;	.st10{font-size:14px;}&#10;	.st11{fill:#787878;}&#10;	.st12{fill:#FFFFFF;}&#10;</style>&#10;    <path
   id="boiler-return-02"
   class="stColdWater"
   d="m 199.4,200.2 h -1.1 c -0.2,0 -0.4,0.2 -0.4,0.4 v 2.2 h -85.1 v 6 H 198 v 2.4 c 0,0.2 0.2,0.4 0.4,0.4 h 1.1 c 0.2,0 0.4,-0.2 0.4,-0.4 v -10.5 c -0.1,-0.3 -0.3,-0.5 -0.5,-0.5 z m -43.2,7.8 -4.8,-2.2 4.8,-2.2 z" />&#10;    <path
   id="boiler-return-01"
   class="stColdWater"
   d="m 237.7,203 v -2.4 c 0,-0.2 -0.2,-0.4 -0.4,-0.4 h -1.1 c -0.2,0 -0.4,0.2 -0.4,0.4 v 10.5 c 0,0.2 0.2,0.4 0.4,0.4 h 1.1 c 0.2,0 0.4,-0.2 0.4,-0.4 V 209 h 84.6 v -6 z m 42,5 -4.8,-2.2 4.8,-2.2 z" />&#10;    <path
   id="boiler-flow"
   class="stHotWater"
   d="m 231.8,64.1 v 88 h -119 v 6 h 125 v -88 h 84.5 v -6 z M 152,157.3 v -4.4 l 4.8,2.2 z m 123.5,-88 v -4.4 l 4.8,2.2 z" />&#10;    <g
   id="binary_sensor.froeling_puffer_1_pufferpumpen_ansteuerung_an_aus"
   class="stPumpInActive"
   transform="translate(-254)"><title
   id="title2">Aktueller Status der Pufferpumpe</title>&#10;        <path
   d="m 475.3,205.7 c 0,-1.8 -1.5,-3.3 -3.3,-3.3 -1.8,0 -3.3,1.5 -3.3,3.3 0,1.8 1.5,3.3 3.3,3.3 1.8,0 3.3,-1.5 3.3,-3.3 z"
   id="path2" />&#10;        <path
   d="m 456.7,211.1 v -2.3 h 5.2 c -0.3,-1 -0.5,-2.1 -0.5,-3.2 0,-1.1 0.2,-2.1 0.4,-3 h -5.2 v -2.1 c 0,-0.2 -0.2,-0.4 -0.4,-0.4 h -1.1 c -0.2,0 -0.4,0.2 -0.4,0.4 V 211 c 0,0.2 0.2,0.4 0.4,0.4 h 1.1 c 0.3,0.1 0.5,0 0.5,-0.3 z"
   id="path3" />&#10;        <path
   d="m 463,211.3 c 0.1,0.7 0.3,1.5 0.5,2.2 0.1,0.5 0.3,0.8 1,1 0.8,0.2 1.6,0.4 2.3,0.5 -1.6,-0.9 -2.9,-2.2 -3.8,-3.7 z"
   id="path4" />&#10;        <path
   d="m 477.3,215 c 0.8,-0.1 1.5,-0.3 2.3,-0.5 0.6,-0.2 0.8,-0.4 1,-1 0.2,-0.8 0.4,-1.5 0.5,-2.3 -1,1.6 -2.3,2.9 -3.8,3.8 z"
   id="path5" />&#10;        <path
   d="m 486.9,200.6 v 2.1 h -4.7 c 0.3,1 0.4,2 0.4,3 0,1.1 -0.2,2.2 -0.5,3.2 h 4.8 v 2.3 c 0,0.2 0.2,0.4 0.4,0.4 h 1.1 c 0.2,0 0.4,-0.2 0.4,-0.4 v -10.5 c 0,-0.2 -0.2,-0.4 -0.4,-0.4 h -1.1 c -0.3,-0.1 -0.4,0.1 -0.4,0.3 z"
   id="path6" />&#10;        <path
   d="m 472,195 c 3.7,0 7,2 8.9,4.9 -0.1,-0.5 -0.2,-1 -0.3,-1.5 0,-0.5 -0.4,-0.8 -0.9,-1 v -4.8 c 0,-0.2 -0.2,-0.4 -0.4,-0.4 h -14.6 c 0,0 -0.2,0 -0.3,0.1 -0.1,0.1 -0.1,0.2 -0.1,0.2 v 4.8 c -0.5,0.2 -0.7,0.4 -0.8,0.9 -0.1,0.5 -0.2,1 -0.3,1.5 1.8,-2.8 5.1,-4.7 8.8,-4.7 z"
   id="path7" />&#10;        <path
   d="m 481.6,205.7 c 0,-5.4 -4.3,-9.7 -9.6,-9.7 -5.3,0 -9.6,4.3 -9.6,9.7 0,5.4 4.3,9.7 9.6,9.7 5.3,0 9.6,-4.3 9.6,-9.7 z m -16.8,0 c 0,-4 3.2,-7.2 7.2,-7.2 4,0 7.2,3.2 7.2,7.2 0,4 -3.2,7.2 -7.2,7.2 -4,0 -7.2,-3.2 -7.2,-7.2 z"
   id="path8" />&#10;</g>&#10;    <g
   id="boiler"
   transform="translate(-254)">&#10;	<path
   class="st3"
   d="m 381.2,90.2 v 28.9 h -13.6 v -8.6 c 0,-1.1 -1,-2.1 -2.1,-2.1 h -91.2 c -1.1,0 -2.1,1 -2.1,2.1 V 240 c 0,1.1 1,2.1 2.1,2.1 h 91.2 c 1.1,0 2.1,-1 2.1,-2.1 V 131.7 h 21 c 2.9,0 5.2,-2.3 5.2,-5.2 V 90.2 Z m -18,147.6 H 276.3 V 112.7 h 86.9 z"
   id="path9" />&#10;        <path
   class="st4"
   d="m 339.3,224 h -38.6 c -2.8,0 -5,-2.3 -5,-5 v -38.6 c 0,-2.8 2.3,-5 5,-5 h 38.6 c 2.8,0 5,2.3 5,5 V 219 c 0,2.7 -2.2,5 -5,5 z"
   id="path10" />&#10;</g>&#10;    <g
   id="sensor.froeling_kesselzustand"
   class="stHeatingOff"
   transform="translate(-254)"
   style="display:inline">&#10;	<title
   id="title10">Betriebszustand</title>&#10;        <path
   d="m 305.3,212.8 c 0.4,4.9 3.7,11.8 12.3,10 -3.6,-1 -6.5,-4.3 -7.7,-10.4 0.8,0.2 1.9,0.9 2.3,1.1 -0.2,-0.9 0.1,-3.4 1.4,-6.4 1.5,7.7 2.6,9 4.1,9.3 -1.4,-3.7 -1.3,-6.9 -0.1,-9.4 0.6,2.4 1.8,4.2 2.9,5.4 1.8,-2.2 2.6,-5.1 1.8,-11.4 4,5.3 3.7,8.6 2.4,10.6 1.1,-0.3 2.7,-1.8 3.8,-4.4 1,1.2 0.8,3.4 -0.1,5.9 0.6,-0.2 1.6,-0.6 2.2,-1.1 -1,7.3 -5.2,8.2 -9.2,10.4 5.7,2.3 15.1,-1.1 16.2,-8.8 0.3,-1.3 -0.1,-3.2 -0.4,-4.7 -0.6,1 -0.9,2.3 -1.8,2.8 -0.2,-1.4 0.2,-2.6 0.8,-3.8 1.1,-4.3 0.4,-7.9 -1.9,-10.7 -0.4,2.1 -0.9,3.9 -1.9,4.4 -1.1,-6.5 -3.1,-11 -5.5,-12.2 0.2,1.9 0.1,3.5 -0.6,4.9 -2,-7.2 -5.5,-6.7 -6.5,-13.2 -1,0.7 -1.2,2.3 -1.4,3.7 0,2.9 0.2,5.7 -1,7.1 -1.1,-2.1 -2.1,-3.8 -3.9,-4 1.3,2.7 0.8,7.4 -1.1,12.5 -0.7,-1.3 -1.9,-3.9 -3.6,-4.3 0.4,3.4 -0.1,7.3 -0.9,10.9 -0.5,-0.8 -1.5,-1.7 -2.6,-2.3 1.3,3.2 -0.5,4.7 0,8.1 z M 320.9,191 c 0.2,2.7 0,5.5 -0.8,6.9 -0.1,-2.6 -0.4,-4.1 0.8,-6.9 z"
   id="path11"
   style="display:inline" />&#10;</g>&#10;    <g
   id="boiler-temp"
   transform="translate(-254)">&#10;	<title
   id="title11">Kesseltemperatur</title>&#10;        <g
   id="label_boiler-temp">&#10;		<path
   id="frame_bg_6"
   class="st12"
   d="m 349.9,154.9 c 0,1.4 -1.1,2.5 -2.5,2.5 h -42.9 c 0.8,-0.5 1.4,-1.5 1.4,-2.5 v -24.5 c 0,-1.1 -0.6,-2 -1.4,-2.5 h 42.9 c 1.4,0 2.5,1.1 2.5,2.5 z" />&#10;            <path
   id="frame_4"
   class="st6"
   d="m 347.3,126.9 h -55.1 c -1.9,0 -3.5,1.6 -3.5,3.5 v 24.5 c 0,1.9 1.6,3.5 3.5,3.5 h 55.1 c 1.9,0 3.5,-1.6 3.5,-3.5 v -24.5 c 0,-2 -1.6,-3.5 -3.5,-3.5 z m 2.6,28 c 0,1.4 -1.1,2.5 -2.5,2.5 h -42.9 c 0.8,-0.5 1.4,-1.5 1.4,-2.5 v -24.5 c 0,-1.1 -0.6,-2 -1.4,-2.5 h 42.9 c 1.4,0 2.5,1.1 2.5,2.5 z" />&#10;            <g
   id="symb_thermometer_4">&#10;			<rect
   x="292.70001"
   y="138.39999"
   class="st7"
   width="3"
   height="2.0999999"
   id="rect11" />&#10;                <rect
   x="292.70001"
   y="134.60001"
   class="st7"
   width="3"
   height="2.0999999"
   id="rect12" />&#10;                <path
   class="st7"
   d="m 299.9,145.1 v -10.6 c 0,-2.3 -3.4,-2.3 -3.4,0 v 10.6 c -1.5,0.7 -2.5,2.2 -2.5,3.9 0,2.3 1.9,4.2 4.2,4.2 2.3,0 4.2,-1.9 4.2,-4.2 0,-1.8 -1,-3.3 -2.5,-3.9 z"
   id="path12" />&#10;                <rect
   x="292.70001"
   y="142.10001"
   class="st7"
   width="3"
   height="2.0999999"
   id="rect13" />&#10;		</g>&#10;	</g>&#10;        <g
   id="txt_boiler-temp">&#10;		<text
   transform="translate(308.6099,147.3701)"
   class="st8 st9 st10"
   id="sensor.froeling_kesseltemperatur">70°C</text>&#10;	</g>&#10;</g>&#10;    <g
   id="pump-01-rpm"
   transform="translate(-254)">&#10;	<title
   id="title13">Pufferpumpen Ansteuerung</title>&#10;        <g
   id="label_pump-01-rpm">&#10;		<path
   id="frame_bg_5"
   class="st12"
   d="m 532.6,246.5 c 0,1.4 -1.1,2.5 -2.5,2.5 h -43.4 c 0.8,-0.5 1.3,-1.4 1.3,-2.5 V 223 c 0,-1 -0.5,-1.9 -1.3,-2.5 h 43.4 c 1.4,0 2.5,1.1 2.5,2.5 z" />&#10;            <path
   id="frame_5"
   class="st6"
   d="m 530.2,219.4 h -71 c -1.9,0 -3.5,1.6 -3.5,3.5 v 23.5 c 0,1.9 1.6,3.5 3.5,3.5 h 71 c 1.9,0 3.5,-1.6 3.5,-3.5 V 223 c 0,-2 -1.6,-3.6 -3.5,-3.6 z m 2.4,27.1 c 0,1.4 -1.1,2.5 -2.5,2.5 h -43.4 c 0.8,-0.5 1.3,-1.4 1.3,-2.5 V 223 c 0,-1 -0.5,-1.9 -1.3,-2.5 h 43.4 c 1.4,0 2.5,1.1 2.5,2.5 z" />&#10;            <g
   id="symb_rpm">&#10;			<path
   class="st7"
   d="m 471.5,225.3 c -7.4,0 -13.5,6.1 -13.5,13.5 v 0.5 h 3.5 v -1 H 459 c 0.1,-3.1 1.4,-5.9 3.3,-8 l 1.8,1.8 0.7,-0.7 -1.8,-1.8 c 2.1,-2 4.9,-3.2 8,-3.3 v 2.5 h 1 v -2.5 c 3.1,0.1 5.9,1.3 8,3.3 l -1.7,1.7 0.7,0.7 1.7,-1.7 c 2,2.1 3.2,4.9 3.3,8 h -2.5 v 1 h 3.5 v -0.5 c 0,-7.4 -6,-13.5 -13.5,-13.5 z"
   id="path13" />&#10;                <path
   class="st7"
   d="m 469.5,240.4 c 1.7,1.7 3,0.8 3,0.8 l 4.2,-8 -8,4.2 c 0,0 -0.9,1.3 0.8,3 z"
   id="path14" />&#10;		</g>&#10;	</g>&#10;        <g
   id="txt_pump-01-rpm">&#10;		<text
   transform="translate(493.5977,240.2959)"
   class="st8 st9 st10"
   id="sensor.froeling_puffer_1_pufferpumpen_ansteuerung">0%</text>&#10;	</g>&#10;</g>&#10;    <path
   id="buffer-tank"
   class="st11"
   d="M 486.4,53.9 C 486.4,36.4 444.7,27 405.5,27 h -3.2 c -39.2,0 -80.9,9.4 -80.9,26.9 v 161.3 c 0,4.3 2.5,8.2 7.6,11.8 l -9.7,15.1 h 29 l 3.5,-5.6 c 14.2,3.7 32.1,5.7 50.5,5.7 h 3.2 c 18.5,0 36.3,-2 50.5,-5.7 l 3.5,5.6 h 29 L 478.8,227 c 5,-3.6 7.6,-7.5 7.6,-11.8 z m -5.1,161.3 c 0,3.7 -4,6.9 -7.3,8.9 l -2.2,1.4 7.4,11.6 h -16.8 l -4,-6.4 -1.8,0.5 c -14.1,3.8 -32.2,6 -51,6 h -3.2 c -18.8,0 -37,-2.1 -51,-6 l -1.8,-0.5 -4,6.4 h -16.8 l 7.4,-11.6 -2.2,-1.4 c -3.3,-2 -7.3,-5.2 -7.3,-8.9 V 53.9 c 0,-10.3 31.1,-21.8 75.8,-21.8 h 3.2 c 44.7,0 75.8,11.5 75.8,21.8 v 161.3 z" />&#10;    <path
   id="obj_loading-bar-01"
   class="stHotWater"
   d="M 477.7,82.4 V 53.9 c 0,-2.2 -5,-7.1 -18.6,-11.4 -14.2,-4.4 -33.3,-6.9 -53.6,-6.9 h -3.2 c -20.3,0 -39.4,2.4 -53.6,6.9 -13.7,4.3 -18.6,9.1 -18.6,11.4 v 28.5 z" />&#10;    <rect
   id="obj_loading-bar-02"
   class="stHotWater"
   x="330"
   y="86"
   width="147.7"
   height="46.799999" />&#10;    <rect
   id="obj_loading-bar-03"
   class="stHotWater"
   x="330"
   y="136.3"
   width="147.7"
   height="46.799999" />&#10;    <path
   id="obj_loading-bar-04"
   class="stColdWater"
   d="m 330,186.7 v 28.5 c 0,2.2 5,7.1 18.6,11.4 14.2,4.4 33.3,6.9 53.6,6.9 h 3.2 c 20.3,0 39.4,-2.4 53.6,-6.9 13.7,-4.3 18.6,-9.1 18.6,-11.4 v -28.5 z" />&#10;    <g
   id="buffer-load"
   transform="translate(-254)">&#10;	<title
   id="title14">Ladezustand des Pufferspeichers</title>&#10;        <g
   id="label_buffer-load">&#10;		<path
   id="frame_bg"
   class="st12"
   d="m 693.5,145.9 c 0,1.4 -1.1,2.5 -2.5,2.5 h -43.4 c 0.8,-0.5 1.3,-1.4 1.3,-2.5 v -23.5 c 0,-1 -0.5,-1.9 -1.3,-2.5 H 691 c 1.4,0 2.5,1.1 2.5,2.5 z" />&#10;            <path
   id="frame_6"
   class="st6"
   d="m 691,118.9 h -71 c -1.9,0 -3.5,1.6 -3.5,3.5 v 23.5 c 0,1.9 1.6,3.5 3.5,3.5 h 71 c 1.9,0 3.5,-1.6 3.5,-3.5 v -23.5 c 0.1,-2 -1.5,-3.5 -3.5,-3.5 z m 2.5,27 c 0,1.4 -1.1,2.5 -2.5,2.5 h -43.4 c 0.8,-0.5 1.3,-1.4 1.3,-2.5 v -23.5 c 0,-1 -0.5,-1.9 -1.3,-2.5 H 691 c 1.4,0 2.5,1.1 2.5,2.5 z" />&#10;            <g
   id="symb_buffer-01">&#10;			<path
   class="st7"
   d="m 639,122.9 c -2.9,0 -5.2,2.4 -5.2,5.2 0,2.9 2.4,5.3 5.2,5.3 2.9,0 5.3,-2.4 5.3,-5.3 0,-2.8 -2.4,-5.2 -5.3,-5.2 z m 1.1,8.6 h -1.3 v -4.8 c -0.5,0.4 -1,0.8 -1.7,1 v -1.2 c 0.3,-0.1 0.7,-0.3 1.1,-0.6 0.4,-0.3 0.7,-0.7 0.8,-1.1 h 1 v 6.7 z"
   id="path15" />&#10;                <path
   class="st7"
   d="m 640,134.7 c -0.3,0 -0.7,0.1 -1,0.1 -1.1,0 -2.1,-0.3 -3.1,-0.7 -0.1,0 -0.1,0 -0.2,0 l -9.4,-1 c -1.7,-0.2 -1.5,-2.7 0.2,-2.5 l 6.4,0.7 c -0.3,-0.6 -0.5,-1.3 -0.7,-2 l -6,-0.7 c -1.7,-0.2 -1.5,-2.7 0.2,-2.5 l 5.8,0.6 c 0.3,-1.5 1.1,-2.7 2.2,-3.7 -1,-0.1 -2.1,-0.2 -3.2,-0.2 h -0.4 c -4.8,0 -8.6,1.2 -8.6,2.7 v 17.7 c 0,0.4 0.3,0.8 0.9,1.2 l -0.9,1.5 h 2.5 l 0.4,-0.7 c 1.5,0.4 3.5,0.7 5.7,0.7 h 0.4 c 2.2,0 4.2,-0.3 5.7,-0.7 l 0.4,0.7 h 2.5 l -0.9,-1.5 c 0.6,-0.4 0.9,-0.8 0.9,-1.2 v -1.1 h 3 v -1.9 h -3 v -5.5 z m -4.2,8.1 -9.4,-1 c -1.7,-0.2 -1.5,-2.7 0.2,-2.5 l 9.4,1 c 1.8,0.2 1.5,2.7 -0.2,2.5 z m 0,-4.4 -9.4,-1 c -1.7,-0.2 -1.5,-2.7 0.2,-2.5 l 9.4,1 c 1.8,0.2 1.5,2.7 -0.2,2.5 z"
   id="path16" />&#10;		</g>&#10;	</g>&#10;        <g
   id="txt_buffer-load">&#10;		<text
   transform="translate(653.5208,139.5522)"
   class="st8 st9 st10"
   id="sensor.froeling_puffer_1_ladezustand">68%</text>&#10;	</g>&#10;</g>&#10;    <g
   id="buffer-lower-sensor"
   transform="translate(-254)">&#10;	<title
   id="title16">Aktuelle Tempertaur am unteren Fühler im Pufferspeicher</title>&#10;        <g
   id="label_buffer-lower-sensor">&#10;		<path
   id="frame_bg_1"
   class="st12"
   d="m 814.4,221.6 c 0,1.4 -1.1,2.5 -2.5,2.5 h -41.4 c 0.8,-0.5 1.4,-1.5 1.4,-2.5 v -23.5 c 0,-1.1 -0.6,-2 -1.4,-2.5 h 41.4 c 1.4,0 2.5,1.1 2.5,2.5 z" />&#10;            <path
   id="frame"
   class="st6"
   d="m 811.8,194.6 h -53 c -1.9,0 -3.5,1.6 -3.5,3.5 v 23.5 c 0,1.9 1.6,3.5 3.5,3.5 h 53 c 1.9,0 3.5,-1.6 3.5,-3.5 v -23.5 c 0,-1.9 -1.5,-3.5 -3.5,-3.5 z m 2.6,27 c 0,1.4 -1.1,2.5 -2.5,2.5 h -41.4 c 0.8,-0.5 1.4,-1.5 1.4,-2.5 v -23.5 c 0,-1.1 -0.6,-2 -1.4,-2.5 h 41.4 c 1.4,0 2.5,1.1 2.5,2.5 z" />&#10;            <g
   id="symb_thermometer">&#10;			<rect
   x="759.20001"
   y="205.8"
   class="st7"
   width="2.9000001"
   height="2"
   id="rect16" />&#10;                <rect
   x="759.20001"
   y="202.2"
   class="st7"
   width="2.9000001"
   height="2"
   id="rect17" />&#10;                <path
   class="st7"
   d="M 766.1,212.2 V 202 c 0,-2.2 -3.3,-2.2 -3.3,0 v 10.3 c -1.4,0.6 -2.5,2.1 -2.5,3.8 0,2.3 1.8,4.1 4.1,4.1 2.3,0 4.1,-1.8 4.1,-4.1 0.1,-1.8 -0.9,-3.2 -2.4,-3.9 z"
   id="path17" />&#10;                <rect
   x="759.20001"
   y="209.39999"
   class="st7"
   width="2.9000001"
   height="2"
   id="rect18" />&#10;		</g>&#10;	</g>&#10;        <g
   id="txt_buffer-lower-sensor">&#10;		<text
   transform="translate(777.2209,215.4353)"
   class="st8 st9 st10"
   id="sensor.froeling_puffer_1_temperatur_unten">50°C</text>&#10;	</g>&#10;</g>&#10;    <g
   id="buffer-upper-sensor"
   transform="translate(-254)">&#10;	<title
   id="title18">Aktuelle Tempertaur am oberen Fühler im Pufferspeicher</title>&#10;        <g
   id="label_buffer-upper-sensor">&#10;		<path
   id="frame_bg_4"
   class="st12"
   d="m 814.4,69.7 c 0,1.4 -1.1,2.5 -2.5,2.5 h -41.4 c 0.8,-0.5 1.4,-1.5 1.4,-2.5 V 46.2 c 0,-1.1 -0.6,-2 -1.4,-2.5 h 41.4 c 1.4,0 2.5,1.1 2.5,2.5 z" />&#10;            <path
   id="frame_3"
   class="st6"
   d="m 811.8,42.7 h -53 c -1.9,0 -3.5,1.6 -3.5,3.5 v 23.5 c 0,1.9 1.6,3.5 3.5,3.5 h 53 c 1.9,0 3.5,-1.6 3.5,-3.5 V 46.2 c 0,-1.9 -1.5,-3.5 -3.5,-3.5 z m 2.6,27 c 0,1.4 -1.1,2.5 -2.5,2.5 h -41.4 c 0.8,-0.5 1.4,-1.5 1.4,-2.5 V 46.2 c 0,-1.1 -0.6,-2 -1.4,-2.5 h 41.4 c 1.4,0 2.5,1.1 2.5,2.5 z" />&#10;            <g
   id="symb_thermometer_3">&#10;			<rect
   x="759.20001"
   y="53.900002"
   class="st7"
   width="2.9000001"
   height="2"
   id="rect19" />&#10;                <rect
   x="759.20001"
   y="50.299999"
   class="st7"
   width="2.9000001"
   height="2"
   id="rect20" />&#10;                <path
   class="st7"
   d="M 766.1,60.3 V 50.1 c 0,-2.2 -3.3,-2.2 -3.3,0 v 10.3 c -1.4,0.6 -2.5,2.1 -2.5,3.8 0,2.3 1.8,4.1 4.1,4.1 2.3,0 4.1,-1.8 4.1,-4.1 0.1,-1.8 -0.9,-3.2 -2.4,-3.9 z"
   id="path20" />&#10;                <rect
   x="759.20001"
   y="57.5"
   class="st7"
   width="2.9000001"
   height="2"
   id="rect21" />&#10;		</g>&#10;	</g>&#10;        <g
   id="txt_buffer-upper-sensor"
   inkscape:label="txt_buffer-upper-sensor">&#10;		<text
   transform="translate(773.2424,63.5206)"
   class="st8 st9 st10"
   id="sensor.froeling_puffer_1_temperatur_oben">74°C</text>&#10;	</g>&#10;	</g>&#10;	</svg>
